M48
; DRILL file {KiCad 9.0.4} date 2025-10-06T15:25:56-0400
; FORMAT={3:3/ absolute / metric / suppress leading zeros}
; #@! TF.CreationDate,2025-10-06T15:25:56-04:00
; #@! TF.GenerationSoftware,Kicad,Pcbnew,9.0.4
; #@! TF.FileFunction,MixedPlating,1,4
FMAT,2
METRIC,TZ
; #@! TA.AperFunction,Plated,PTH,ViaDrill
T1C0.300
; #@! TA.AperFunction,Plated,PTH,ComponentDrill
T2C0.550
; #@! TA.AperFunction,Plated,PTH,ComponentDrill
T3C0.850
; #@! TA.AperFunction,Plated,PTH,ComponentDrill
T4C1.000
; #@! TA.AperFunction,NonPlated,NPTH,ComponentDrill
T5C0.800
; #@! TA.AperFunction,NonPlated,NPTH,ComponentDrill
T6C3.200
%
G90
G05
T1
X100625Y-170900
X100700Y-173500
X100700Y-176000
X101200Y-167500
X101300Y-166300
X101800Y-155000
X103200Y-169800
X103500Y-169000
X103700Y-158100
X104100Y-150300
X105188Y-154158
X106600Y-156100
X106600Y-171700
X107200Y-157300
X107400Y-172100
X108000Y-158400
X108500Y-154400
X108686Y-158812
X108775Y-149500
X109372Y-159223
X109453Y-160019
X110100Y-166900
X110357Y-160365
X110700Y-167200
X111100Y-172100
X111175Y-166865
X111349Y-172754
X112000Y-161220
X112500Y-142900
X113000Y-160600
X113177Y-154839
X113200Y-144500
X113305Y-160070
X113313Y-146000
X113700Y-160500
X114108Y-151308
X114446Y-144871
X116138Y-112230
X116400Y-157100
X116600Y-146400
X116800Y-122300
X116800Y-130000
X117000Y-114400
X117000Y-148000
X117500Y-152700
X117600Y-138100
X118900Y-156000
X119700Y-155700
X119759Y-155060
X121394Y-150894
X121500Y-113100
X121500Y-121100
X121500Y-129100
X121500Y-137100
X121700Y-153400
X122134Y-152685
X123300Y-140725
X123300Y-142325
X123500Y-141425
X123900Y-164800
X124000Y-128300
X124100Y-112200
X124100Y-120300
X124100Y-136300
X124150Y-165700
X124700Y-122100
X124700Y-166400
X124800Y-130300
X124800Y-165300
X124900Y-114400
X124900Y-146900
X125400Y-148600
X125600Y-138100
X125800Y-144100
X128000Y-146500
X128600Y-137200
X128663Y-111963
X129100Y-129000
X129500Y-174800
X129600Y-121300
X129700Y-150800
X130400Y-127600
X132000Y-100000
X132000Y-101433
X132000Y-102867
X132000Y-104300
X132000Y-105733
X132000Y-107167
X132000Y-108600
X132000Y-124000
X132000Y-125433
X132000Y-126867
X132000Y-128300
X132000Y-129733
X132000Y-131167
X132000Y-132600
X132000Y-148000
X132000Y-149433
X132000Y-150867
X132000Y-152300
X132000Y-153733
X132000Y-155167
X132000Y-156600
X132000Y-172000
X132000Y-173433
X132000Y-174867
X132000Y-176300
X132000Y-177733
X132000Y-179167
X132000Y-180600
X132067Y-111867
X132067Y-113300
X132067Y-114733
X132067Y-116167
X132067Y-117600
X132067Y-119033
X132067Y-120467
X132067Y-135867
X132067Y-137300
X132067Y-138733
X132067Y-140167
X132067Y-141600
X132067Y-143033
X132067Y-144467
X132067Y-159867
X132067Y-161300
X132067Y-162733
X132067Y-164167
X132067Y-165600
X132067Y-167033
X132067Y-168467
X132067Y-183867
X132067Y-185300
X132067Y-186733
X132067Y-188167
X132067Y-189600
X132067Y-191033
X132067Y-192467
X136400Y-169300
X136400Y-193200
X136500Y-181600
X136600Y-157600
X136800Y-109700
X137200Y-133040
X138300Y-120800
X138400Y-145100
X140200Y-135000
X140500Y-147300
X140800Y-122600
X141000Y-110500
X141000Y-158700
X141200Y-170900
X141400Y-182700
X142350Y-134350
X142350Y-146524
X143900Y-99120
X143900Y-116900
X143900Y-122150
X143900Y-140900
X143900Y-164900
X143900Y-188900
X144000Y-103650
X144000Y-104950
X144000Y-116050
X144000Y-127650
X144000Y-128950
X144000Y-140050
X144000Y-151650
X144000Y-152950
X144000Y-164050
X144000Y-175650
X144000Y-176950
X144000Y-188050
X144100Y-109100
X144100Y-114200
X144100Y-133100
X144100Y-138200
X144100Y-157100
X144100Y-162200
X144100Y-181100
X144100Y-186200
X144200Y-102200
X144200Y-120900
X144200Y-126200
X144200Y-144900
X144200Y-150200
X144200Y-168900
X144200Y-174200
X144200Y-192900
X144300Y-107100
X144300Y-131100
X144300Y-155100
X144300Y-179100
X144400Y-119250
X144400Y-143250
X144400Y-167250
X144400Y-191250
X146200Y-110500
X146800Y-100783
X146800Y-124783
X146800Y-148783
X146800Y-172783
X146871Y-122608
X146900Y-113300
X146900Y-137300
X146930Y-134230
X147000Y-161300
X147100Y-185300
X147500Y-145874
X147900Y-103500
X148200Y-125200
X148400Y-109800
X151200Y-99200
X151200Y-102200
X151200Y-105200
X151200Y-108200
X151200Y-111200
X151200Y-114200
X151200Y-117200
X151200Y-120200
X151200Y-123200
X151200Y-126200
X151200Y-129200
X151200Y-132200
X151200Y-135200
X151200Y-138200
X151200Y-141200
X151200Y-144200
X151200Y-147200
X151200Y-150200
X151200Y-153200
X151200Y-156200
X151200Y-159200
X151200Y-162200
X151200Y-165200
X151200Y-168200
X151200Y-171200
X151200Y-174200
X151200Y-177200
X151200Y-180200
X151200Y-183200
X151200Y-186200
X151200Y-189200
X151200Y-192200
X151825Y-101538
X151825Y-125538
X151825Y-149538
X151825Y-173538
X154200Y-99200
X154200Y-102200
X154200Y-105200
X154200Y-108200
X154200Y-111200
X154200Y-114200
X154200Y-117200
X154200Y-120200
X154200Y-123200
X154200Y-126200
X154200Y-129200
X154200Y-132200
X154200Y-135200
X154200Y-138200
X154200Y-141200
X154200Y-144200
X154200Y-147200
X154200Y-150200
X154200Y-153200
X154200Y-156200
X154200Y-159200
X154200Y-162200
X154200Y-165200
X154200Y-168200
X154200Y-171200
X154200Y-174200
X154200Y-177200
X154200Y-180200
X154200Y-183200
X154200Y-186200
X154200Y-189200
X154200Y-192200
X155000Y-103038
X155000Y-127038
X155000Y-151038
X155000Y-175038
X157200Y-99200
X157200Y-102200
X157200Y-105200
X157200Y-108200
X157200Y-111200
X157200Y-114200
X157200Y-117200
X157200Y-120200
X157200Y-123200
X157200Y-126200
X157200Y-129200
X157200Y-132200
X157200Y-135200
X157200Y-138200
X157200Y-141200
X157200Y-144200
X157200Y-147200
X157200Y-150200
X157200Y-153200
X157200Y-156200
X157200Y-159200
X157200Y-162200
X157200Y-165200
X157200Y-168200
X157200Y-171200
X157200Y-174200
X157200Y-177200
X157200Y-180200
X157200Y-183200
X157200Y-186200
X157200Y-189200
X157200Y-192200
X160200Y-99200
X160200Y-102200
X160200Y-105200
X160200Y-108200
X160200Y-111200
X160200Y-114200
X160200Y-117200
X160200Y-120200
X160200Y-123200
X160200Y-126200
X160200Y-129200
X160200Y-132200
X160200Y-135200
X160200Y-138200
X160200Y-141200
X160200Y-144200
X160200Y-147200
X160200Y-150200
X160200Y-153200
X160200Y-156200
X160200Y-159200
X160200Y-162200
X160200Y-165200
X160200Y-168200
X160200Y-171200
X160200Y-174200
X160200Y-177200
X160200Y-180200
X160200Y-183200
X160200Y-186200
X160200Y-189200
X160200Y-192200
X161000Y-107900
X161000Y-131500
X161000Y-155700
X161000Y-179700
X163200Y-99200
X163200Y-102200
X163200Y-105200
X163200Y-108200
X163200Y-111200
X163200Y-114200
X163200Y-117200
X163200Y-120200
X163200Y-123200
X163200Y-126200
X163200Y-129200
X163200Y-132200
X163200Y-135200
X163200Y-138200
X163200Y-141200
X163200Y-144200
X163200Y-147200
X163200Y-150200
X163200Y-153200
X163200Y-156200
X163200Y-159200
X163200Y-162200
X163200Y-165200
X163200Y-168200
X163200Y-171200
X163200Y-174200
X163200Y-177200
X163200Y-180200
X163200Y-183200
X163200Y-186200
X163200Y-189200
X163200Y-192200
X166200Y-99200
X166200Y-102200
X166200Y-105200
X166200Y-108200
X166200Y-111200
X166200Y-114200
X166200Y-117200
X166200Y-120200
X166200Y-123200
X166200Y-126200
X166200Y-129200
X166200Y-132200
X166200Y-135200
X166200Y-138200
X166200Y-141200
X166200Y-144200
X166200Y-147200
X166200Y-150200
X166200Y-153200
X166200Y-156200
X166200Y-159200
X166200Y-162200
X166200Y-165200
X166200Y-168200
X166200Y-171200
X166200Y-174200
X166200Y-177200
X166200Y-180200
X166200Y-183200
X166200Y-186200
X166200Y-189200
X166200Y-192200
X167000Y-109788
X167000Y-133800
X167000Y-181788
X167100Y-157788
X169200Y-99200
X169200Y-102200
X169200Y-105200
X169200Y-108200
X169200Y-111200
X169200Y-114200
X169200Y-117200
X169200Y-120200
X169200Y-123200
X169200Y-126200
X169200Y-129200
X169200Y-132200
X169200Y-135200
X169200Y-138200
X169200Y-141200
X169200Y-144200
X169200Y-147200
X169200Y-150200
X169200Y-153200
X169200Y-156200
X169200Y-159200
X169200Y-162200
X169200Y-165200
X169200Y-168200
X169200Y-171200
X169200Y-174200
X169200Y-177200
X169200Y-180200
X169200Y-183200
X169200Y-186200
X169200Y-189200
X169200Y-192200
X169900Y-113700
X169900Y-137600
X169900Y-161700
X169900Y-185700
X172200Y-99200
X172200Y-102200
X172200Y-105200
X172200Y-108200
X172200Y-111200
X172200Y-114200
X172200Y-117200
X172200Y-120200
X172200Y-123200
X172200Y-126200
X172200Y-129200
X172200Y-132200
X172200Y-135200
X172200Y-138200
X172200Y-141200
X172200Y-144200
X172200Y-147200
X172200Y-150200
X172200Y-153200
X172200Y-156200
X172200Y-159200
X172200Y-162200
X172200Y-165200
X172200Y-168200
X172200Y-171200
X172200Y-174200
X172200Y-177200
X172200Y-180200
X172200Y-183200
X172200Y-186200
X172200Y-189200
X172200Y-192200
X172900Y-116600
X172900Y-140600
X172900Y-188600
X172951Y-164700
X175200Y-99200
X175200Y-102200
X175200Y-105200
X175200Y-108200
X175200Y-111200
X175200Y-114200
X175200Y-117200
X175200Y-120200
X175200Y-123200
X175200Y-126200
X175200Y-129200
X175200Y-132200
X175200Y-135200
X175200Y-138200
X175200Y-141200
X175200Y-144200
X175200Y-147200
X175200Y-150200
X175200Y-153200
X175200Y-156200
X175200Y-159200
X175200Y-162200
X175200Y-165200
X175200Y-168200
X175200Y-171200
X175200Y-174200
X175200Y-177200
X175200Y-180200
X175200Y-183200
X175200Y-186200
X175200Y-189200
X175200Y-192200
X175900Y-119800
X175900Y-143800
X175900Y-191800
X175951Y-167900
X178200Y-99200
X178200Y-102200
X178200Y-105200
X178200Y-108200
X178200Y-111200
X178200Y-114200
X178200Y-117200
X178200Y-120200
X178200Y-123200
X178200Y-126200
X178200Y-129200
X178200Y-132200
X178200Y-135200
X178200Y-138200
X178200Y-141200
X178200Y-144200
X178200Y-147200
X178200Y-150200
X178200Y-153200
X178200Y-156200
X178200Y-159200
X178200Y-162200
X178200Y-165200
X178200Y-168200
X178200Y-171200
X178200Y-174200
X178200Y-177200
X178200Y-180200
X178200Y-183200
X178200Y-186200
X178200Y-189200
X178200Y-192200
X178400Y-194100
X178600Y-146400
X178800Y-122600
X178847Y-170653
X181200Y-99200
X181200Y-102200
X181200Y-105200
X181200Y-108200
X181200Y-111200
X181200Y-114200
X181200Y-117200
X181200Y-120200
X181200Y-123200
X181200Y-126200
X181200Y-129200
X181200Y-132200
X181200Y-135200
X181200Y-138200
X181200Y-141200
X181200Y-144200
X181200Y-147200
X181200Y-150200
X181200Y-153200
X181200Y-156200
X181200Y-159200
X181200Y-162200
X181200Y-165200
X181200Y-168200
X181200Y-171200
X181200Y-174200
X181200Y-177200
X181200Y-180200
X181200Y-183200
X181200Y-186200
X181200Y-189200
X181200Y-192200
X184200Y-99200
X184200Y-102200
X184200Y-105200
X184200Y-108200
X184200Y-111200
X184200Y-114200
X184200Y-117200
X184200Y-120200
X184200Y-123200
X184200Y-126200
X184200Y-129200
X184200Y-132200
X184200Y-135200
X184200Y-138200
X184200Y-141200
X184200Y-144200
X184200Y-147200
X184200Y-150200
X184200Y-153200
X184200Y-156200
X184200Y-159200
X184200Y-162200
X184200Y-165200
X184200Y-168200
X184200Y-171200
X184200Y-174200
X184200Y-177200
X184200Y-180200
X184200Y-183200
X184200Y-186200
X184200Y-189200
X184200Y-192200
X187200Y-99200
X187200Y-102200
X187200Y-105200
X187200Y-108200
X187200Y-111200
X187200Y-114200
X187200Y-117200
X187200Y-120200
X187200Y-123200
X187200Y-126200
X187200Y-129200
X187200Y-132200
X187200Y-135200
X187200Y-138200
X187200Y-141200
X187200Y-144200
X187200Y-147200
X187200Y-150200
X187200Y-153200
X187200Y-156200
X187200Y-159200
X187200Y-162200
X187200Y-165200
X187200Y-168200
X187200Y-171200
X187200Y-174200
X187200Y-177200
X187200Y-180200
X187200Y-183200
X187200Y-186200
X187200Y-189200
X187200Y-192200
X190200Y-99200
X190200Y-102200
X190200Y-105200
X190200Y-108200
X190200Y-111200
X190200Y-114200
X190200Y-117200
X190200Y-120200
X190200Y-123200
X190200Y-126200
X190200Y-129200
X190200Y-132200
X190200Y-135200
X190200Y-138200
X190200Y-141200
X190200Y-144200
X190200Y-147200
X190200Y-150200
X190200Y-153200
X190200Y-156200
X190200Y-159200
X190200Y-162200
X190200Y-165200
X190200Y-168200
X190200Y-171200
X190200Y-174200
X190200Y-177200
X190200Y-180200
X190200Y-183200
X190200Y-186200
X190200Y-189200
X190200Y-192200
X193200Y-99200
X193200Y-102200
X193200Y-105200
X193200Y-108200
X193200Y-111200
X193200Y-114200
X193200Y-117200
X193200Y-120200
X193200Y-123200
X193200Y-126200
X193200Y-129200
X193200Y-132200
X193200Y-135200
X193200Y-138200
X193200Y-141200
X193200Y-144200
X193200Y-147200
X193200Y-150200
X193200Y-153200
X193200Y-156200
X193200Y-159200
X193200Y-162200
X193200Y-165200
X193200Y-168200
X193200Y-171200
X193200Y-174200
X193200Y-177200
X193200Y-180200
X193200Y-183200
X193200Y-186200
X193200Y-189200
X193200Y-192200
X196200Y-99200
X196200Y-102200
X196200Y-105200
X196200Y-108200
X196200Y-111200
X196200Y-114200
X196200Y-117200
X196200Y-120200
X196200Y-123200
X196200Y-126200
X196200Y-129200
X196200Y-132200
X196200Y-135200
X196200Y-138200
X196200Y-141200
X196200Y-144200
X196200Y-147200
X196200Y-150200
X196200Y-153200
X196200Y-156200
X196200Y-159200
X196200Y-162200
X196200Y-165200
X196200Y-168200
X196200Y-171200
X196200Y-174200
X196200Y-177200
X196200Y-180200
X196200Y-183200
X196200Y-186200
X196200Y-189200
X196200Y-192200
X199200Y-99200
X199200Y-102200
X199200Y-105200
X199200Y-108200
X199200Y-111200
X199200Y-114200
X199200Y-117200
X199200Y-120200
X199200Y-123200
X199200Y-126200
X199200Y-129200
X199200Y-132200
X199200Y-135200
X199200Y-138200
X199200Y-141200
X199200Y-144200
X199200Y-147200
X199200Y-150200
X199200Y-153200
X199200Y-156200
X199200Y-159200
X199200Y-162200
X199200Y-165200
X199200Y-168200
X199200Y-171200
X199200Y-174200
X199200Y-177200
X199200Y-180200
X199200Y-183200
X199200Y-186200
X199200Y-189200
X199200Y-192200
X202200Y-99200
X202200Y-102200
X202200Y-105200
X202200Y-108200
X202200Y-111200
X202200Y-114200
X202200Y-117200
X202200Y-120200
X202200Y-123200
X202200Y-126200
X202200Y-129200
X202200Y-132200
X202200Y-135200
X202200Y-138200
X202200Y-141200
X202200Y-144200
X202200Y-147200
X202200Y-150200
X202200Y-153200
X202200Y-156200
X202200Y-159200
X202200Y-162200
X202200Y-165200
X202200Y-168200
X202200Y-171200
X202200Y-174200
X202200Y-177200
X202200Y-180200
X202200Y-183200
X202200Y-186200
X202200Y-189200
X202200Y-192200
X205200Y-99200
X205200Y-102200
X205200Y-105200
X205200Y-108200
X205200Y-111200
X205200Y-114200
X205200Y-117200
X205200Y-120200
X205200Y-123200
X205200Y-126200
X205200Y-129200
X205200Y-132200
X205200Y-135200
X205200Y-138200
X205200Y-141200
X205200Y-144200
X205200Y-147200
X205200Y-150200
X205200Y-153200
X205200Y-156200
X205200Y-159200
X205200Y-162200
X205200Y-165200
X205200Y-168200
X205200Y-171200
X205200Y-174200
X205200Y-177200
X205200Y-180200
X205200Y-183200
X205200Y-186200
X205200Y-189200
X205200Y-192200
X208200Y-99200
X208200Y-102200
X208200Y-105200
X208200Y-108200
X208200Y-111200
X208200Y-114200
X208200Y-117200
X208200Y-120200
X208200Y-123200
X208200Y-126200
X208200Y-129200
X208200Y-132200
X208200Y-135200
X208200Y-138200
X208200Y-141200
X208200Y-144200
X208200Y-147200
X208200Y-150200
X208200Y-153200
X208200Y-156200
X208200Y-159200
X208200Y-162200
X208200Y-165200
X208200Y-168200
X208200Y-171200
X208200Y-174200
X208200Y-177200
X208200Y-180200
X208200Y-183200
X208200Y-186200
X208200Y-189200
X208200Y-192200
X211200Y-99200
X211200Y-102200
X211200Y-105200
X211200Y-108200
X211200Y-111200
X211200Y-114200
X211200Y-117200
X211200Y-120200
X211200Y-123200
X211200Y-126200
X211200Y-129200
X211200Y-132200
X211200Y-135200
X211200Y-138200
X211200Y-141200
X211200Y-144200
X211200Y-147200
X211200Y-150200
X211200Y-153200
X211200Y-156200
X211200Y-159200
X211200Y-162200
X211200Y-165200
X211200Y-168200
X211200Y-171200
X211200Y-174200
X211200Y-177200
X211200Y-180200
X211200Y-183200
X211200Y-186200
X211200Y-189200
X211200Y-192200
X214200Y-99200
X214200Y-102200
X214200Y-105200
X214200Y-108200
X214200Y-111200
X214200Y-114200
X214200Y-117200
X214200Y-120200
X214200Y-123200
X214200Y-126200
X214200Y-129200
X214200Y-132200
X214200Y-135200
X214200Y-138200
X214200Y-141200
X214200Y-144200
X214200Y-147200
X214200Y-150200
X214200Y-153200
X214200Y-156200
X214200Y-159200
X214200Y-162200
X214200Y-165200
X214200Y-168200
X214200Y-171200
X214200Y-174200
X214200Y-177200
X214200Y-180200
X214200Y-183200
X214200Y-186200
X214200Y-189200
X214200Y-192200
X217200Y-99200
X217200Y-102200
X217200Y-105200
X217200Y-108200
X217200Y-111200
X217200Y-114200
X217200Y-117200
X217200Y-120200
X217200Y-123200
X217200Y-126200
X217200Y-129200
X217200Y-132200
X217200Y-135200
X217200Y-138200
X217200Y-141200
X217200Y-144200
X217200Y-147200
X217200Y-150200
X217200Y-153200
X217200Y-156200
X217200Y-159200
X217200Y-162200
X217200Y-165200
X217200Y-168200
X217200Y-171200
X217200Y-174200
X217200Y-177200
X217200Y-180200
X217200Y-183200
X217200Y-186200
X217200Y-189200
X217200Y-192200
X220200Y-99200
X220200Y-102200
X220200Y-105200
X220200Y-108200
X220200Y-111200
X220200Y-114200
X220200Y-117200
X220200Y-120200
X220200Y-123200
X220200Y-126200
X220200Y-129200
X220200Y-132200
X220200Y-135200
X220200Y-138200
X220200Y-141200
X220200Y-144200
X220200Y-147200
X220200Y-150200
X220200Y-153200
X220200Y-156200
X220200Y-159200
X220200Y-162200
X220200Y-165200
X220200Y-168200
X220200Y-171200
X220200Y-174200
X220200Y-177200
X220200Y-180200
X220200Y-183200
X220200Y-186200
X220200Y-189200
X220200Y-192200
X223200Y-99200
X223200Y-102200
X223200Y-105200
X223200Y-108200
X223200Y-111200
X223200Y-114200
X223200Y-117200
X223200Y-120200
X223200Y-123200
X223200Y-126200
X223200Y-129200
X223200Y-132200
X223200Y-135200
X223200Y-138200
X223200Y-141200
X223200Y-144200
X223200Y-147200
X223200Y-150200
X223200Y-153200
X223200Y-156200
X223200Y-159200
X223200Y-162200
X223200Y-165200
X223200Y-168200
X223200Y-171200
X223200Y-174200
X223200Y-177200
X223200Y-180200
X223200Y-183200
X223200Y-186200
X223200Y-189200
X223200Y-192200
X226200Y-99200
X226200Y-102200
X226200Y-105200
X226200Y-108200
X226200Y-111200
X226200Y-114200
X226200Y-117200
X226200Y-120200
X226200Y-123200
X226200Y-126200
X226200Y-129200
X226200Y-132200
X226200Y-135200
X226200Y-138200
X226200Y-141200
X226200Y-144200
X226200Y-147200
X226200Y-150200
X226200Y-153200
X226200Y-156200
X226200Y-159200
X226200Y-162200
X226200Y-165200
X226200Y-168200
X226200Y-171200
X226200Y-174200
X226200Y-177200
X226200Y-180200
X226200Y-183200
X226200Y-186200
X226200Y-189200
X226200Y-192200
X229200Y-99200
X229200Y-102200
X229200Y-105200
X229200Y-108200
X229200Y-111200
X229200Y-114200
X229200Y-117200
X229200Y-120200
X229200Y-123200
X229200Y-126200
X229200Y-129200
X229200Y-132200
X229200Y-135200
X229200Y-138200
X229200Y-141200
X229200Y-144200
X229200Y-147200
X229200Y-150200
X229200Y-153200
X229200Y-156200
X229200Y-159200
X229200Y-162200
X229200Y-165200
X229200Y-168200
X229200Y-171200
X229200Y-174200
X229200Y-177200
X229200Y-180200
X229200Y-183200
X229200Y-186200
X229200Y-189200
X229200Y-192200
X232200Y-99200
X232200Y-102200
X232200Y-105200
X232200Y-108200
X232200Y-111200
X232200Y-114200
X232200Y-117200
X232200Y-120200
X232200Y-123200
X232200Y-126200
X232200Y-129200
X232200Y-132200
X232200Y-135200
X232200Y-138200
X232200Y-141200
X232200Y-144200
X232200Y-147200
X232200Y-150200
X232200Y-153200
X232200Y-156200
X232200Y-159200
X232200Y-162200
X232200Y-165200
X232200Y-168200
X232200Y-171200
X232200Y-174200
X232200Y-177200
X232200Y-180200
X232200Y-183200
X232200Y-186200
X232200Y-189200
X232200Y-192200
X235200Y-99200
X235200Y-102200
X235200Y-105200
X235200Y-108200
X235200Y-111200
X235200Y-114200
X235200Y-117200
X235200Y-120200
X235200Y-123200
X235200Y-126200
X235200Y-129200
X235200Y-132200
X235200Y-135200
X235200Y-138200
X235200Y-141200
X235200Y-144200
X235200Y-147200
X235200Y-150200
X235200Y-153200
X235200Y-156200
X235200Y-159200
X235200Y-162200
X235200Y-165200
X235200Y-168200
X235200Y-171200
X235200Y-174200
X235200Y-177200
X235200Y-180200
X235200Y-183200
X235200Y-186200
X235200Y-189200
X235200Y-192200
X238200Y-99200
X238200Y-102200
X238200Y-105200
X238200Y-108200
X238200Y-111200
X238200Y-114200
X238200Y-117200
X238200Y-120200
X238200Y-123200
X238200Y-126200
X238200Y-129200
X238200Y-132200
X238200Y-135200
X238200Y-138200
X238200Y-141200
X238200Y-144200
X238200Y-147200
X238200Y-150200
X238200Y-153200
X238200Y-156200
X238200Y-159200
X238200Y-162200
X238200Y-165200
X238200Y-168200
X238200Y-171200
X238200Y-174200
X238200Y-177200
X238200Y-180200
X238200Y-183200
X238200Y-186200
X238200Y-189200
X238200Y-192200
X241200Y-99200
X241200Y-102200
X241200Y-105200
X241200Y-108200
X241200Y-111200
X241200Y-114200
X241200Y-117200
X241200Y-120200
X241200Y-123200
X241200Y-126200
X241200Y-129200
X241200Y-132200
X241200Y-135200
X241200Y-138200
X241200Y-141200
X241200Y-144200
X241200Y-147200
X241200Y-150200
X241200Y-153200
X241200Y-156200
X241200Y-159200
X241200Y-162200
X241200Y-165200
X241200Y-168200
X241200Y-171200
X241200Y-174200
X241200Y-177200
X241200Y-180200
X241200Y-183200
X241200Y-186200
X241200Y-189200
X241200Y-192200
X244200Y-99200
X244200Y-102200
X244200Y-105200
X244200Y-108200
X244200Y-111200
X244200Y-114200
X244200Y-117200
X244200Y-120200
X244200Y-123200
X244200Y-126200
X244200Y-129200
X244200Y-132200
X244200Y-135200
X244200Y-138200
X244200Y-141200
X244200Y-144200
X244200Y-147200
X244200Y-150200
X244200Y-153200
X244200Y-156200
X244200Y-159200
X244200Y-162200
X244200Y-165200
X244200Y-168200
X244200Y-171200
X244200Y-174200
X244200Y-177200
X244200Y-180200
X244200Y-183200
X244200Y-186200
X244200Y-189200
X244200Y-192200
X245833Y-99367
X245833Y-100800
X245833Y-102233
X245833Y-103667
X245833Y-105100
X245833Y-106533
X245833Y-107967
X245833Y-123367
X245833Y-124800
X245833Y-126233
X245833Y-127667
X245833Y-129100
X245833Y-130533
X245833Y-131967
X245833Y-147367
X245833Y-148800
X245833Y-150233
X245833Y-151667
X245833Y-153100
X245833Y-154533
X245833Y-155967
X245833Y-171367
X245833Y-172800
X245833Y-174233
X245833Y-175667
X245833Y-177100
X245833Y-178533
X245833Y-179967
X245900Y-111233
X245900Y-112667
X245900Y-114100
X245900Y-115533
X245900Y-116967
X245900Y-118400
X245900Y-119833
X245900Y-135233
X245900Y-136667
X245900Y-138100
X245900Y-139533
X245900Y-140967
X245900Y-142400
X245900Y-143833
X245900Y-159233
X245900Y-160667
X245900Y-162100
X245900Y-163533
X245900Y-164967
X245900Y-166400
X245900Y-167833
X245900Y-183233
X245900Y-184667
X245900Y-186100
X245900Y-187533
X245900Y-188967
X245900Y-190400
X245900Y-191833
X249800Y-168500
X250850Y-109040
X250850Y-133040
X250850Y-157040
X250850Y-181040
X251900Y-192500
X252000Y-120500
X252200Y-144500
X254900Y-98900
X254900Y-134600
X255000Y-110800
X255000Y-146900
X255100Y-122800
X255100Y-158700
X255200Y-171200
X255200Y-182800
X255800Y-103960
X255800Y-115770
X255800Y-139770
X255800Y-151960
X255800Y-163770
X255800Y-175960
X255800Y-187770
X257700Y-109100
X257700Y-114500
X257700Y-128000
X257700Y-133100
X257700Y-138500
X257700Y-157100
X257700Y-162500
X257700Y-181100
X257700Y-186500
X257800Y-117100
X257800Y-118300
X257800Y-141100
X257800Y-142300
X257800Y-165100
X257800Y-166300
X257800Y-189100
X257800Y-190300
X257900Y-106600
X257900Y-130600
X257900Y-154600
X257900Y-178600
X258035Y-105435
X258035Y-129435
X258035Y-153435
X258035Y-177435
X258600Y-102800
X258600Y-126800
X258600Y-150800
X258600Y-174800
X260000Y-101600
X260000Y-113410
X260000Y-125600
X260000Y-137410
X260000Y-149600
X260000Y-161410
X260000Y-173600
X260000Y-185410
T4
X98000Y-170960
X98000Y-173500
X98000Y-176040
X98000Y-178580
T5
X100150Y-150850
X100150Y-155850
T6
X100000Y-100000
X100000Y-195000
X269910Y-195010
X270000Y-100000
T2
G00X97725Y-149475
M15
G01X97075Y-149475
M16
G05
G00X97725Y-157225
M15
G01X97075Y-157225
M16
G05
T3
G00X101475Y-149625
M15
G01X100925Y-149625
M16
G05
G00X101475Y-157075
M15
G01X100925Y-157075
M16
G05
M30
