%TF.GenerationSoftware,KiCad,Pcbnew,9.0.4*%
%TF.CreationDate,2025-10-12T22:13:27-04:00*%
%TF.ProjectId,led-array,6c65642d-6172-4726-9179-2e6b69636164,rev?*%
%TF.SameCoordinates,Original*%
%TF.FileFunction,Legend,Bot*%
%TF.FilePolarity,Positive*%
%FSLAX46Y46*%
G04 Gerber Fmt 4.6, Leading zero omitted, Abs format (unit mm)*
G04 Created by KiCad (PCBNEW 9.0.4) date 2025-10-12 22:13:27*
%MOMM*%
%LPD*%
G01*
G04 APERTURE LIST*
%ADD10C,0.100000*%
%ADD11C,0.000000*%
G04 APERTURE END LIST*
D10*
X121896115Y-97172419D02*
X121896115Y-96172419D01*
X121896115Y-96172419D02*
X121658020Y-96172419D01*
X121658020Y-96172419D02*
X121515163Y-96220038D01*
X121515163Y-96220038D02*
X121419925Y-96315276D01*
X121419925Y-96315276D02*
X121372306Y-96410514D01*
X121372306Y-96410514D02*
X121324687Y-96600990D01*
X121324687Y-96600990D02*
X121324687Y-96743847D01*
X121324687Y-96743847D02*
X121372306Y-96934323D01*
X121372306Y-96934323D02*
X121419925Y-97029561D01*
X121419925Y-97029561D02*
X121515163Y-97124800D01*
X121515163Y-97124800D02*
X121658020Y-97172419D01*
X121658020Y-97172419D02*
X121896115Y-97172419D01*
X120515163Y-97124800D02*
X120610401Y-97172419D01*
X120610401Y-97172419D02*
X120800877Y-97172419D01*
X120800877Y-97172419D02*
X120896115Y-97124800D01*
X120896115Y-97124800D02*
X120943734Y-97029561D01*
X120943734Y-97029561D02*
X120943734Y-96648609D01*
X120943734Y-96648609D02*
X120896115Y-96553371D01*
X120896115Y-96553371D02*
X120800877Y-96505752D01*
X120800877Y-96505752D02*
X120610401Y-96505752D01*
X120610401Y-96505752D02*
X120515163Y-96553371D01*
X120515163Y-96553371D02*
X120467544Y-96648609D01*
X120467544Y-96648609D02*
X120467544Y-96743847D01*
X120467544Y-96743847D02*
X120943734Y-96839085D01*
X120086591Y-97124800D02*
X119991353Y-97172419D01*
X119991353Y-97172419D02*
X119800877Y-97172419D01*
X119800877Y-97172419D02*
X119705639Y-97124800D01*
X119705639Y-97124800D02*
X119658020Y-97029561D01*
X119658020Y-97029561D02*
X119658020Y-96981942D01*
X119658020Y-96981942D02*
X119705639Y-96886704D01*
X119705639Y-96886704D02*
X119800877Y-96839085D01*
X119800877Y-96839085D02*
X119943734Y-96839085D01*
X119943734Y-96839085D02*
X120038972Y-96791466D01*
X120038972Y-96791466D02*
X120086591Y-96696228D01*
X120086591Y-96696228D02*
X120086591Y-96648609D01*
X120086591Y-96648609D02*
X120038972Y-96553371D01*
X120038972Y-96553371D02*
X119943734Y-96505752D01*
X119943734Y-96505752D02*
X119800877Y-96505752D01*
X119800877Y-96505752D02*
X119705639Y-96553371D01*
X119229448Y-97172419D02*
X119229448Y-96505752D01*
X119229448Y-96172419D02*
X119277067Y-96220038D01*
X119277067Y-96220038D02*
X119229448Y-96267657D01*
X119229448Y-96267657D02*
X119181829Y-96220038D01*
X119181829Y-96220038D02*
X119229448Y-96172419D01*
X119229448Y-96172419D02*
X119229448Y-96267657D01*
X118324687Y-96505752D02*
X118324687Y-97315276D01*
X118324687Y-97315276D02*
X118372306Y-97410514D01*
X118372306Y-97410514D02*
X118419925Y-97458133D01*
X118419925Y-97458133D02*
X118515163Y-97505752D01*
X118515163Y-97505752D02*
X118658020Y-97505752D01*
X118658020Y-97505752D02*
X118753258Y-97458133D01*
X118324687Y-97124800D02*
X118419925Y-97172419D01*
X118419925Y-97172419D02*
X118610401Y-97172419D01*
X118610401Y-97172419D02*
X118705639Y-97124800D01*
X118705639Y-97124800D02*
X118753258Y-97077180D01*
X118753258Y-97077180D02*
X118800877Y-96981942D01*
X118800877Y-96981942D02*
X118800877Y-96696228D01*
X118800877Y-96696228D02*
X118753258Y-96600990D01*
X118753258Y-96600990D02*
X118705639Y-96553371D01*
X118705639Y-96553371D02*
X118610401Y-96505752D01*
X118610401Y-96505752D02*
X118419925Y-96505752D01*
X118419925Y-96505752D02*
X118324687Y-96553371D01*
X117848496Y-96505752D02*
X117848496Y-97172419D01*
X117848496Y-96600990D02*
X117800877Y-96553371D01*
X117800877Y-96553371D02*
X117705639Y-96505752D01*
X117705639Y-96505752D02*
X117562782Y-96505752D01*
X117562782Y-96505752D02*
X117467544Y-96553371D01*
X117467544Y-96553371D02*
X117419925Y-96648609D01*
X117419925Y-96648609D02*
X117419925Y-97172419D01*
X116562782Y-97124800D02*
X116658020Y-97172419D01*
X116658020Y-97172419D02*
X116848496Y-97172419D01*
X116848496Y-97172419D02*
X116943734Y-97124800D01*
X116943734Y-97124800D02*
X116991353Y-97029561D01*
X116991353Y-97029561D02*
X116991353Y-96648609D01*
X116991353Y-96648609D02*
X116943734Y-96553371D01*
X116943734Y-96553371D02*
X116848496Y-96505752D01*
X116848496Y-96505752D02*
X116658020Y-96505752D01*
X116658020Y-96505752D02*
X116562782Y-96553371D01*
X116562782Y-96553371D02*
X116515163Y-96648609D01*
X116515163Y-96648609D02*
X116515163Y-96743847D01*
X116515163Y-96743847D02*
X116991353Y-96839085D01*
X115658020Y-97172419D02*
X115658020Y-96172419D01*
X115658020Y-97124800D02*
X115753258Y-97172419D01*
X115753258Y-97172419D02*
X115943734Y-97172419D01*
X115943734Y-97172419D02*
X116038972Y-97124800D01*
X116038972Y-97124800D02*
X116086591Y-97077180D01*
X116086591Y-97077180D02*
X116134210Y-96981942D01*
X116134210Y-96981942D02*
X116134210Y-96696228D01*
X116134210Y-96696228D02*
X116086591Y-96600990D01*
X116086591Y-96600990D02*
X116038972Y-96553371D01*
X116038972Y-96553371D02*
X115943734Y-96505752D01*
X115943734Y-96505752D02*
X115753258Y-96505752D01*
X115753258Y-96505752D02*
X115658020Y-96553371D01*
X114419924Y-97172419D02*
X114419924Y-96172419D01*
X114419924Y-96553371D02*
X114324686Y-96505752D01*
X114324686Y-96505752D02*
X114134210Y-96505752D01*
X114134210Y-96505752D02*
X114038972Y-96553371D01*
X114038972Y-96553371D02*
X113991353Y-96600990D01*
X113991353Y-96600990D02*
X113943734Y-96696228D01*
X113943734Y-96696228D02*
X113943734Y-96981942D01*
X113943734Y-96981942D02*
X113991353Y-97077180D01*
X113991353Y-97077180D02*
X114038972Y-97124800D01*
X114038972Y-97124800D02*
X114134210Y-97172419D01*
X114134210Y-97172419D02*
X114324686Y-97172419D01*
X114324686Y-97172419D02*
X114419924Y-97124800D01*
X113610400Y-96505752D02*
X113372305Y-97172419D01*
X113134210Y-96505752D02*
X113372305Y-97172419D01*
X113372305Y-97172419D02*
X113467543Y-97410514D01*
X113467543Y-97410514D02*
X113515162Y-97458133D01*
X113515162Y-97458133D02*
X113610400Y-97505752D01*
X112038971Y-97124800D02*
X111896114Y-97172419D01*
X111896114Y-97172419D02*
X111658019Y-97172419D01*
X111658019Y-97172419D02*
X111562781Y-97124800D01*
X111562781Y-97124800D02*
X111515162Y-97077180D01*
X111515162Y-97077180D02*
X111467543Y-96981942D01*
X111467543Y-96981942D02*
X111467543Y-96886704D01*
X111467543Y-96886704D02*
X111515162Y-96791466D01*
X111515162Y-96791466D02*
X111562781Y-96743847D01*
X111562781Y-96743847D02*
X111658019Y-96696228D01*
X111658019Y-96696228D02*
X111848495Y-96648609D01*
X111848495Y-96648609D02*
X111943733Y-96600990D01*
X111943733Y-96600990D02*
X111991352Y-96553371D01*
X111991352Y-96553371D02*
X112038971Y-96458133D01*
X112038971Y-96458133D02*
X112038971Y-96362895D01*
X112038971Y-96362895D02*
X111991352Y-96267657D01*
X111991352Y-96267657D02*
X111943733Y-96220038D01*
X111943733Y-96220038D02*
X111848495Y-96172419D01*
X111848495Y-96172419D02*
X111610400Y-96172419D01*
X111610400Y-96172419D02*
X111467543Y-96220038D01*
X110658019Y-97124800D02*
X110753257Y-97172419D01*
X110753257Y-97172419D02*
X110943733Y-97172419D01*
X110943733Y-97172419D02*
X111038971Y-97124800D01*
X111038971Y-97124800D02*
X111086590Y-97029561D01*
X111086590Y-97029561D02*
X111086590Y-96648609D01*
X111086590Y-96648609D02*
X111038971Y-96553371D01*
X111038971Y-96553371D02*
X110943733Y-96505752D01*
X110943733Y-96505752D02*
X110753257Y-96505752D01*
X110753257Y-96505752D02*
X110658019Y-96553371D01*
X110658019Y-96553371D02*
X110610400Y-96648609D01*
X110610400Y-96648609D02*
X110610400Y-96743847D01*
X110610400Y-96743847D02*
X111086590Y-96839085D01*
X110324685Y-96505752D02*
X109943733Y-96505752D01*
X110181828Y-96172419D02*
X110181828Y-97029561D01*
X110181828Y-97029561D02*
X110134209Y-97124800D01*
X110134209Y-97124800D02*
X110038971Y-97172419D01*
X110038971Y-97172419D02*
X109943733Y-97172419D01*
X109610399Y-97172419D02*
X109610399Y-96172419D01*
X109181828Y-97172419D02*
X109181828Y-96648609D01*
X109181828Y-96648609D02*
X109229447Y-96553371D01*
X109229447Y-96553371D02*
X109324685Y-96505752D01*
X109324685Y-96505752D02*
X109467542Y-96505752D01*
X109467542Y-96505752D02*
X109562780Y-96553371D01*
X109562780Y-96553371D02*
X109610399Y-96600990D01*
X107372304Y-97172419D02*
X107705637Y-96696228D01*
X107943732Y-97172419D02*
X107943732Y-96172419D01*
X107943732Y-96172419D02*
X107562780Y-96172419D01*
X107562780Y-96172419D02*
X107467542Y-96220038D01*
X107467542Y-96220038D02*
X107419923Y-96267657D01*
X107419923Y-96267657D02*
X107372304Y-96362895D01*
X107372304Y-96362895D02*
X107372304Y-96505752D01*
X107372304Y-96505752D02*
X107419923Y-96600990D01*
X107419923Y-96600990D02*
X107467542Y-96648609D01*
X107467542Y-96648609D02*
X107562780Y-96696228D01*
X107562780Y-96696228D02*
X107943732Y-96696228D01*
X106800875Y-97172419D02*
X106896113Y-97124800D01*
X106896113Y-97124800D02*
X106943732Y-97077180D01*
X106943732Y-97077180D02*
X106991351Y-96981942D01*
X106991351Y-96981942D02*
X106991351Y-96696228D01*
X106991351Y-96696228D02*
X106943732Y-96600990D01*
X106943732Y-96600990D02*
X106896113Y-96553371D01*
X106896113Y-96553371D02*
X106800875Y-96505752D01*
X106800875Y-96505752D02*
X106658018Y-96505752D01*
X106658018Y-96505752D02*
X106562780Y-96553371D01*
X106562780Y-96553371D02*
X106515161Y-96600990D01*
X106515161Y-96600990D02*
X106467542Y-96696228D01*
X106467542Y-96696228D02*
X106467542Y-96981942D01*
X106467542Y-96981942D02*
X106515161Y-97077180D01*
X106515161Y-97077180D02*
X106562780Y-97124800D01*
X106562780Y-97124800D02*
X106658018Y-97172419D01*
X106658018Y-97172419D02*
X106800875Y-97172419D01*
X106038970Y-97172419D02*
X106038970Y-96172419D01*
X106038970Y-96553371D02*
X105943732Y-96505752D01*
X105943732Y-96505752D02*
X105753256Y-96505752D01*
X105753256Y-96505752D02*
X105658018Y-96553371D01*
X105658018Y-96553371D02*
X105610399Y-96600990D01*
X105610399Y-96600990D02*
X105562780Y-96696228D01*
X105562780Y-96696228D02*
X105562780Y-96981942D01*
X105562780Y-96981942D02*
X105610399Y-97077180D01*
X105610399Y-97077180D02*
X105658018Y-97124800D01*
X105658018Y-97124800D02*
X105753256Y-97172419D01*
X105753256Y-97172419D02*
X105943732Y-97172419D01*
X105943732Y-97172419D02*
X106038970Y-97124800D01*
X104991351Y-97172419D02*
X105086589Y-97124800D01*
X105086589Y-97124800D02*
X105134208Y-97029561D01*
X105134208Y-97029561D02*
X105134208Y-96172419D01*
X104229446Y-97124800D02*
X104324684Y-97172419D01*
X104324684Y-97172419D02*
X104515160Y-97172419D01*
X104515160Y-97172419D02*
X104610398Y-97124800D01*
X104610398Y-97124800D02*
X104658017Y-97029561D01*
X104658017Y-97029561D02*
X104658017Y-96648609D01*
X104658017Y-96648609D02*
X104610398Y-96553371D01*
X104610398Y-96553371D02*
X104515160Y-96505752D01*
X104515160Y-96505752D02*
X104324684Y-96505752D01*
X104324684Y-96505752D02*
X104229446Y-96553371D01*
X104229446Y-96553371D02*
X104181827Y-96648609D01*
X104181827Y-96648609D02*
X104181827Y-96743847D01*
X104181827Y-96743847D02*
X104658017Y-96839085D01*
X103800874Y-97124800D02*
X103705636Y-97172419D01*
X103705636Y-97172419D02*
X103515160Y-97172419D01*
X103515160Y-97172419D02*
X103419922Y-97124800D01*
X103419922Y-97124800D02*
X103372303Y-97029561D01*
X103372303Y-97029561D02*
X103372303Y-96981942D01*
X103372303Y-96981942D02*
X103419922Y-96886704D01*
X103419922Y-96886704D02*
X103515160Y-96839085D01*
X103515160Y-96839085D02*
X103658017Y-96839085D01*
X103658017Y-96839085D02*
X103753255Y-96791466D01*
X103753255Y-96791466D02*
X103800874Y-96696228D01*
X103800874Y-96696228D02*
X103800874Y-96648609D01*
X103800874Y-96648609D02*
X103753255Y-96553371D01*
X103753255Y-96553371D02*
X103658017Y-96505752D01*
X103658017Y-96505752D02*
X103515160Y-96505752D01*
X103515160Y-96505752D02*
X103419922Y-96553371D01*
D11*
%TO.C,G\u002A\u002A\u002A*%
G36*
X107500000Y-104040000D02*
G01*
X107500000Y-104360000D01*
X107180000Y-104360000D01*
X106860000Y-104360000D01*
X106860000Y-104040000D01*
X106860000Y-103720000D01*
X107180000Y-103720000D01*
X107500000Y-103720000D01*
X107500000Y-104040000D01*
G37*
G36*
X110060000Y-110760000D02*
G01*
X110060000Y-111400000D01*
X109740000Y-111400000D01*
X109420000Y-111400000D01*
X109420000Y-110760000D01*
X109420000Y-110120000D01*
X109740000Y-110120000D01*
X110060000Y-110120000D01*
X110060000Y-110760000D01*
G37*
G36*
X111340000Y-98920000D02*
G01*
X111340000Y-99240000D01*
X111020000Y-99240000D01*
X110700000Y-99240000D01*
X110700000Y-98920000D01*
X110700000Y-98600000D01*
X111020000Y-98600000D01*
X111340000Y-98600000D01*
X111340000Y-98920000D01*
G37*
G36*
X112620000Y-105960000D02*
G01*
X112620000Y-106280000D01*
X112300000Y-106280000D01*
X111980000Y-106280000D01*
X111980000Y-105960000D01*
X111980000Y-105640000D01*
X112300000Y-105640000D01*
X112620000Y-105640000D01*
X112620000Y-105960000D01*
G37*
G36*
X113900000Y-102760000D02*
G01*
X113900000Y-103080000D01*
X113580000Y-103080000D01*
X113260000Y-103080000D01*
X113260000Y-102760000D01*
X113260000Y-102440000D01*
X113580000Y-102440000D01*
X113900000Y-102440000D01*
X113900000Y-102760000D01*
G37*
G36*
X115180000Y-114280000D02*
G01*
X115180000Y-114600000D01*
X114860000Y-114600000D01*
X114540000Y-114600000D01*
X114540000Y-114280000D01*
X114540000Y-113960000D01*
X114860000Y-113960000D01*
X115180000Y-113960000D01*
X115180000Y-114280000D01*
G37*
G36*
X116460000Y-102760000D02*
G01*
X116460000Y-103080000D01*
X116140000Y-103080000D01*
X115820000Y-103080000D01*
X115820000Y-102760000D01*
X115820000Y-102440000D01*
X116140000Y-102440000D01*
X116460000Y-102440000D01*
X116460000Y-102760000D01*
G37*
G36*
X119020000Y-107880000D02*
G01*
X119020000Y-108200000D01*
X118700000Y-108200000D01*
X118380000Y-108200000D01*
X118380000Y-107880000D01*
X118380000Y-107560000D01*
X118700000Y-107560000D01*
X119020000Y-107560000D01*
X119020000Y-107880000D01*
G37*
G36*
X119660000Y-109160000D02*
G01*
X119660000Y-109480000D01*
X119340000Y-109480000D01*
X119020000Y-109480000D01*
X119020000Y-109160000D01*
X119020000Y-108840000D01*
X119340000Y-108840000D01*
X119660000Y-108840000D01*
X119660000Y-109160000D01*
G37*
G36*
X120300000Y-106600000D02*
G01*
X120300000Y-106920000D01*
X119660000Y-106920000D01*
X119020000Y-106920000D01*
X119020000Y-106600000D01*
X119020000Y-106280000D01*
X119660000Y-106280000D01*
X120300000Y-106280000D01*
X120300000Y-106600000D01*
G37*
G36*
X120300000Y-108520000D02*
G01*
X120300000Y-108840000D01*
X119980000Y-108840000D01*
X119660000Y-108840000D01*
X119660000Y-108520000D01*
X119660000Y-108200000D01*
X119980000Y-108200000D01*
X120300000Y-108200000D01*
X120300000Y-108520000D01*
G37*
G36*
X106860000Y-105000000D02*
G01*
X107500000Y-105000000D01*
X107500000Y-105320000D01*
X107500000Y-105640000D01*
X106860000Y-105640000D01*
X106220000Y-105640000D01*
X106220000Y-105320000D01*
X106220000Y-105000000D01*
X106860000Y-105000000D01*
G37*
G36*
X106220000Y-104360000D02*
G01*
X106220000Y-105000000D01*
X105900000Y-105000000D01*
X105580000Y-105000000D01*
X105580000Y-104360000D01*
X105580000Y-103720000D01*
X105900000Y-103720000D01*
X106220000Y-103720000D01*
X106220000Y-104360000D01*
G37*
G36*
X113580000Y-105000000D02*
G01*
X113900000Y-105000000D01*
X113900000Y-105640000D01*
X113900000Y-106280000D01*
X114220000Y-106280000D01*
X114540000Y-106280000D01*
X114540000Y-106600000D01*
X114540000Y-106920000D01*
X113900000Y-106920000D01*
X113260000Y-106920000D01*
X113260000Y-105960000D01*
X113260000Y-105000000D01*
X113580000Y-105000000D01*
G37*
G36*
X113260000Y-104360000D02*
G01*
X113260000Y-105000000D01*
X112620000Y-105000000D01*
X111980000Y-105000000D01*
X111980000Y-104360000D01*
X111980000Y-103720000D01*
X112620000Y-103720000D01*
X113260000Y-103720000D01*
X113260000Y-104360000D01*
G37*
G36*
X107427343Y-99898563D02*
G01*
X107449872Y-99912169D01*
X107466772Y-99928724D01*
X107481437Y-99952657D01*
X107500000Y-99988190D01*
X107500000Y-100840001D01*
X107500000Y-101691811D01*
X107481437Y-101727344D01*
X107467608Y-101750176D01*
X107451085Y-101766914D01*
X107427155Y-101781536D01*
X107391436Y-101800196D01*
X106529624Y-101798432D01*
X105667812Y-101796667D01*
X105639417Y-101776667D01*
X105631403Y-101770370D01*
X105610942Y-101749429D01*
X105595511Y-101727285D01*
X105580000Y-101697903D01*
X105580037Y-100847285D01*
X105580057Y-100763051D01*
X105580173Y-100627468D01*
X105580391Y-100505008D01*
X105580712Y-100395535D01*
X105581138Y-100298916D01*
X105581669Y-100215017D01*
X105582307Y-100143703D01*
X105583053Y-100084842D01*
X105583908Y-100038298D01*
X105584873Y-100003938D01*
X105585948Y-99981628D01*
X105587136Y-99971234D01*
X105587982Y-99968468D01*
X105600774Y-99943963D01*
X105621064Y-99919537D01*
X105644836Y-99899340D01*
X105668076Y-99887526D01*
X105669098Y-99887323D01*
X105681760Y-99886416D01*
X105707106Y-99885559D01*
X105744603Y-99884754D01*
X105793718Y-99884007D01*
X105853918Y-99883322D01*
X105924669Y-99882702D01*
X106005439Y-99882152D01*
X106095694Y-99881677D01*
X106194902Y-99881280D01*
X106302528Y-99880965D01*
X106418040Y-99880738D01*
X106540905Y-99880602D01*
X107391810Y-99880000D01*
X107427343Y-99898563D01*
G37*
G36*
X107427343Y-111418563D02*
G01*
X107449872Y-111432169D01*
X107466772Y-111448724D01*
X107481437Y-111472657D01*
X107500000Y-111508190D01*
X107500000Y-112360001D01*
X107500000Y-113211811D01*
X107481437Y-113247344D01*
X107467608Y-113270176D01*
X107451085Y-113286914D01*
X107427155Y-113301536D01*
X107391436Y-113320196D01*
X106529624Y-113318432D01*
X105667812Y-113316667D01*
X105639417Y-113296667D01*
X105631403Y-113290370D01*
X105610942Y-113269429D01*
X105595511Y-113247285D01*
X105580000Y-113217903D01*
X105580037Y-112367285D01*
X105580057Y-112283051D01*
X105580173Y-112147468D01*
X105580391Y-112025008D01*
X105580712Y-111915535D01*
X105581138Y-111818916D01*
X105581669Y-111735017D01*
X105582307Y-111663703D01*
X105583053Y-111604842D01*
X105583908Y-111558298D01*
X105584873Y-111523938D01*
X105585948Y-111501628D01*
X105587136Y-111491234D01*
X105587982Y-111488468D01*
X105600774Y-111463963D01*
X105621064Y-111439537D01*
X105644836Y-111419340D01*
X105668076Y-111407526D01*
X105669098Y-111407323D01*
X105681760Y-111406416D01*
X105707106Y-111405559D01*
X105744603Y-111404754D01*
X105793718Y-111404007D01*
X105853918Y-111403322D01*
X105924669Y-111402702D01*
X106005439Y-111402152D01*
X106095694Y-111401677D01*
X106194902Y-111401280D01*
X106302528Y-111400965D01*
X106418040Y-111400738D01*
X106540905Y-111400602D01*
X107391810Y-111400000D01*
X107427343Y-111418563D01*
G37*
G36*
X118947343Y-111418563D02*
G01*
X118969872Y-111432169D01*
X118986772Y-111448724D01*
X119001437Y-111472657D01*
X119020000Y-111508190D01*
X119020000Y-112360001D01*
X119020000Y-113211811D01*
X119001437Y-113247344D01*
X118987608Y-113270176D01*
X118971085Y-113286914D01*
X118947155Y-113301536D01*
X118911436Y-113320196D01*
X118049624Y-113318432D01*
X117187812Y-113316667D01*
X117159417Y-113296667D01*
X117151403Y-113290370D01*
X117130942Y-113269429D01*
X117115511Y-113247285D01*
X117100000Y-113217903D01*
X117100037Y-112367285D01*
X117100057Y-112283051D01*
X117100173Y-112147468D01*
X117100391Y-112025008D01*
X117100712Y-111915535D01*
X117101138Y-111818916D01*
X117101669Y-111735017D01*
X117102307Y-111663703D01*
X117103053Y-111604842D01*
X117103908Y-111558298D01*
X117104873Y-111523938D01*
X117105948Y-111501628D01*
X117107136Y-111491234D01*
X117107982Y-111488468D01*
X117120774Y-111463963D01*
X117141064Y-111439537D01*
X117164836Y-111419340D01*
X117188076Y-111407526D01*
X117189098Y-111407323D01*
X117201760Y-111406416D01*
X117227106Y-111405559D01*
X117264603Y-111404754D01*
X117313718Y-111404007D01*
X117373918Y-111403322D01*
X117444669Y-111402702D01*
X117525439Y-111402152D01*
X117615694Y-111401677D01*
X117714902Y-111401280D01*
X117822528Y-111400965D01*
X117938040Y-111400738D01*
X118060905Y-111400602D01*
X118911810Y-111400000D01*
X118947343Y-111418563D01*
G37*
G36*
X106342999Y-98602162D02*
G01*
X106550487Y-98602247D01*
X108690974Y-98603334D01*
X108717999Y-98621218D01*
X108724301Y-98625753D01*
X108744868Y-98644569D01*
X108760845Y-98664552D01*
X108776666Y-98690000D01*
X108776666Y-100840000D01*
X108776666Y-102990000D01*
X108760845Y-103015449D01*
X108756724Y-103021456D01*
X108738511Y-103041862D01*
X108717999Y-103058783D01*
X108690973Y-103076667D01*
X106540486Y-103076667D01*
X104390000Y-103076667D01*
X104364551Y-103060846D01*
X104358544Y-103056725D01*
X104338138Y-103038512D01*
X104321217Y-103018000D01*
X104303333Y-102990975D01*
X104301625Y-100854685D01*
X104301622Y-100851296D01*
X104301613Y-100840001D01*
X104940000Y-100840001D01*
X104940000Y-100851296D01*
X104940005Y-101020256D01*
X104940024Y-101176422D01*
X104940060Y-101320299D01*
X104940116Y-101452395D01*
X104940195Y-101573214D01*
X104940301Y-101683264D01*
X104940439Y-101783051D01*
X104940610Y-101873081D01*
X104940820Y-101953861D01*
X104941070Y-102025895D01*
X104941366Y-102089692D01*
X104941710Y-102145757D01*
X104942106Y-102194597D01*
X104942557Y-102236717D01*
X104943068Y-102272624D01*
X104943641Y-102302824D01*
X104944280Y-102327824D01*
X104944989Y-102348129D01*
X104945771Y-102364247D01*
X104946630Y-102376683D01*
X104947569Y-102385943D01*
X104948592Y-102392535D01*
X104949702Y-102396963D01*
X104950903Y-102399735D01*
X104962996Y-102414931D01*
X104980265Y-102429097D01*
X104980403Y-102429177D01*
X104983266Y-102430372D01*
X104987818Y-102431477D01*
X104994566Y-102432494D01*
X105004015Y-102433428D01*
X105016672Y-102434282D01*
X105033043Y-102435059D01*
X105053635Y-102435763D01*
X105078953Y-102436398D01*
X105109505Y-102436967D01*
X105145795Y-102437474D01*
X105188332Y-102437921D01*
X105237620Y-102438314D01*
X105294166Y-102438655D01*
X105358476Y-102438947D01*
X105431057Y-102439195D01*
X105512415Y-102439402D01*
X105603056Y-102439571D01*
X105703487Y-102439706D01*
X105814213Y-102439811D01*
X105935741Y-102439889D01*
X106068578Y-102439943D01*
X106213229Y-102439977D01*
X106370201Y-102439995D01*
X106540000Y-102440000D01*
X106634401Y-102439999D01*
X106796819Y-102439989D01*
X106946692Y-102439966D01*
X107084529Y-102439926D01*
X107210839Y-102439866D01*
X107326131Y-102439781D01*
X107430914Y-102439669D01*
X107525698Y-102439524D01*
X107610992Y-102439345D01*
X107687305Y-102439126D01*
X107755146Y-102438864D01*
X107815024Y-102438556D01*
X107867449Y-102438197D01*
X107912929Y-102437785D01*
X107951975Y-102437315D01*
X107985095Y-102436784D01*
X108012798Y-102436187D01*
X108035594Y-102435522D01*
X108053992Y-102434784D01*
X108068500Y-102433970D01*
X108079629Y-102433076D01*
X108087887Y-102432098D01*
X108093784Y-102431034D01*
X108097828Y-102429878D01*
X108100530Y-102428627D01*
X108102831Y-102427378D01*
X108106964Y-102425565D01*
X108110781Y-102424068D01*
X108114294Y-102422382D01*
X108117515Y-102420000D01*
X108120457Y-102416419D01*
X108123133Y-102411131D01*
X108125554Y-102403633D01*
X108127735Y-102393417D01*
X108129686Y-102379978D01*
X108131421Y-102362812D01*
X108132953Y-102341412D01*
X108134294Y-102315273D01*
X108135456Y-102283889D01*
X108136451Y-102246754D01*
X108137294Y-102203365D01*
X108137996Y-102153213D01*
X108138569Y-102095795D01*
X108139027Y-102030605D01*
X108139381Y-101957136D01*
X108139645Y-101874885D01*
X108139831Y-101783344D01*
X108139951Y-101682008D01*
X108140018Y-101570373D01*
X108140045Y-101447932D01*
X108140044Y-101314180D01*
X108140028Y-101168611D01*
X108140009Y-101010719D01*
X108140000Y-100840001D01*
X108140006Y-100712419D01*
X108140028Y-100550929D01*
X108140052Y-100401898D01*
X108140065Y-100264821D01*
X108140054Y-100139195D01*
X108140004Y-100024516D01*
X108139903Y-99920282D01*
X108139735Y-99825989D01*
X108139488Y-99741133D01*
X108139148Y-99665210D01*
X108138702Y-99597718D01*
X108138135Y-99538153D01*
X108137433Y-99486011D01*
X108136584Y-99440790D01*
X108135574Y-99401985D01*
X108134388Y-99369093D01*
X108133014Y-99341610D01*
X108131437Y-99319034D01*
X108129643Y-99300860D01*
X108127620Y-99286586D01*
X108125353Y-99275708D01*
X108122830Y-99267722D01*
X108120035Y-99262125D01*
X108116955Y-99258413D01*
X108113577Y-99256083D01*
X108109888Y-99254632D01*
X108105872Y-99253556D01*
X108101518Y-99252352D01*
X108096810Y-99250516D01*
X108095196Y-99249871D01*
X108090850Y-99248757D01*
X108084284Y-99247729D01*
X108074993Y-99246784D01*
X108062471Y-99245918D01*
X108046215Y-99245129D01*
X108025718Y-99244413D01*
X108000476Y-99243767D01*
X107969983Y-99243187D01*
X107933734Y-99242670D01*
X107891224Y-99242212D01*
X107841948Y-99241811D01*
X107785401Y-99241462D01*
X107721077Y-99241163D01*
X107648471Y-99240910D01*
X107567079Y-99240699D01*
X107476394Y-99240528D01*
X107375912Y-99240394D01*
X107265128Y-99240291D01*
X107143537Y-99240218D01*
X107010632Y-99240171D01*
X106865910Y-99240147D01*
X106708865Y-99240142D01*
X106538992Y-99240152D01*
X106447192Y-99240159D01*
X106283355Y-99240159D01*
X106132078Y-99240155D01*
X105992857Y-99240158D01*
X105865185Y-99240183D01*
X105748557Y-99240240D01*
X105642467Y-99240343D01*
X105546410Y-99240504D01*
X105459879Y-99240736D01*
X105382370Y-99241051D01*
X105313377Y-99241463D01*
X105252395Y-99241982D01*
X105198916Y-99242622D01*
X105152437Y-99243396D01*
X105112451Y-99244316D01*
X105078453Y-99245395D01*
X105049937Y-99246644D01*
X105026398Y-99248077D01*
X105007330Y-99249707D01*
X104992227Y-99251545D01*
X104980585Y-99253605D01*
X104971896Y-99255898D01*
X104965656Y-99258438D01*
X104961359Y-99261237D01*
X104958500Y-99264307D01*
X104956572Y-99267661D01*
X104955070Y-99271312D01*
X104953490Y-99275272D01*
X104951324Y-99279554D01*
X104950690Y-99280765D01*
X104949492Y-99284094D01*
X104948387Y-99289052D01*
X104947370Y-99296145D01*
X104946439Y-99305884D01*
X104945589Y-99318778D01*
X104944816Y-99335335D01*
X104944118Y-99356065D01*
X104943490Y-99381475D01*
X104942929Y-99412076D01*
X104942431Y-99448376D01*
X104941992Y-99490885D01*
X104941608Y-99540110D01*
X104941277Y-99596561D01*
X104940994Y-99660748D01*
X104940755Y-99733178D01*
X104940557Y-99814361D01*
X104940396Y-99904806D01*
X104940269Y-100005021D01*
X104940171Y-100115516D01*
X104940099Y-100236800D01*
X104940050Y-100369382D01*
X104940020Y-100513769D01*
X104940004Y-100670473D01*
X104940000Y-100840001D01*
X104301613Y-100840001D01*
X104301566Y-100777897D01*
X104301419Y-100558186D01*
X104301318Y-100351595D01*
X104301264Y-100157965D01*
X104301255Y-99977135D01*
X104301294Y-99808946D01*
X104301380Y-99653238D01*
X104301513Y-99509852D01*
X104301695Y-99378628D01*
X104301925Y-99259406D01*
X104302204Y-99152026D01*
X104302532Y-99056329D01*
X104302910Y-98972156D01*
X104303337Y-98899346D01*
X104303816Y-98837740D01*
X104304345Y-98787178D01*
X104304925Y-98747501D01*
X104305557Y-98718549D01*
X104306241Y-98700161D01*
X104306977Y-98692180D01*
X104307614Y-98689988D01*
X104320174Y-98664960D01*
X104340425Y-98640099D01*
X104364386Y-98619562D01*
X104388076Y-98607505D01*
X104395956Y-98606930D01*
X104417054Y-98606350D01*
X104451023Y-98605805D01*
X104497625Y-98605295D01*
X104556621Y-98604821D01*
X104627774Y-98604383D01*
X104710843Y-98603982D01*
X104805592Y-98603618D01*
X104911782Y-98603292D01*
X105029175Y-98603004D01*
X105157531Y-98602756D01*
X105296614Y-98602548D01*
X105446183Y-98602379D01*
X105606002Y-98602252D01*
X105775831Y-98602166D01*
X105955433Y-98602122D01*
X106144568Y-98602120D01*
X106342999Y-98602162D01*
G37*
G36*
X106342999Y-110122162D02*
G01*
X106550487Y-110122247D01*
X108690974Y-110123334D01*
X108717999Y-110141218D01*
X108724301Y-110145753D01*
X108744868Y-110164569D01*
X108760845Y-110184552D01*
X108776666Y-110210000D01*
X108776666Y-112360000D01*
X108776666Y-114510000D01*
X108760845Y-114535449D01*
X108756724Y-114541456D01*
X108738511Y-114561862D01*
X108717999Y-114578783D01*
X108690973Y-114596667D01*
X106540486Y-114596667D01*
X104390000Y-114596667D01*
X104364551Y-114580846D01*
X104358544Y-114576725D01*
X104338138Y-114558512D01*
X104321217Y-114538000D01*
X104303333Y-114510975D01*
X104301625Y-112374685D01*
X104301622Y-112371296D01*
X104301613Y-112360001D01*
X104940000Y-112360001D01*
X104940000Y-112371296D01*
X104940005Y-112540256D01*
X104940024Y-112696422D01*
X104940060Y-112840299D01*
X104940116Y-112972395D01*
X104940195Y-113093214D01*
X104940301Y-113203264D01*
X104940439Y-113303051D01*
X104940610Y-113393081D01*
X104940820Y-113473861D01*
X104941070Y-113545895D01*
X104941366Y-113609692D01*
X104941710Y-113665757D01*
X104942106Y-113714597D01*
X104942557Y-113756717D01*
X104943068Y-113792624D01*
X104943641Y-113822824D01*
X104944280Y-113847824D01*
X104944989Y-113868129D01*
X104945771Y-113884247D01*
X104946630Y-113896683D01*
X104947569Y-113905943D01*
X104948592Y-113912535D01*
X104949702Y-113916963D01*
X104950903Y-113919735D01*
X104962996Y-113934931D01*
X104980265Y-113949097D01*
X104980403Y-113949177D01*
X104983266Y-113950372D01*
X104987818Y-113951477D01*
X104994566Y-113952494D01*
X105004015Y-113953428D01*
X105016672Y-113954282D01*
X105033043Y-113955059D01*
X105053635Y-113955763D01*
X105078953Y-113956398D01*
X105109505Y-113956967D01*
X105145795Y-113957474D01*
X105188332Y-113957921D01*
X105237620Y-113958314D01*
X105294166Y-113958655D01*
X105358476Y-113958947D01*
X105431057Y-113959195D01*
X105512415Y-113959402D01*
X105603056Y-113959571D01*
X105703487Y-113959706D01*
X105814213Y-113959811D01*
X105935741Y-113959889D01*
X106068578Y-113959943D01*
X106213229Y-113959977D01*
X106370201Y-113959995D01*
X106540000Y-113960001D01*
X106634401Y-113959999D01*
X106796819Y-113959989D01*
X106946692Y-113959966D01*
X107084529Y-113959926D01*
X107210839Y-113959866D01*
X107326131Y-113959781D01*
X107430914Y-113959669D01*
X107525698Y-113959524D01*
X107610992Y-113959345D01*
X107687305Y-113959126D01*
X107755146Y-113958864D01*
X107815024Y-113958556D01*
X107867449Y-113958197D01*
X107912929Y-113957785D01*
X107951975Y-113957315D01*
X107985095Y-113956784D01*
X108012798Y-113956187D01*
X108035594Y-113955522D01*
X108053992Y-113954784D01*
X108068500Y-113953970D01*
X108079629Y-113953076D01*
X108087887Y-113952098D01*
X108093784Y-113951034D01*
X108097828Y-113949878D01*
X108100530Y-113948627D01*
X108102831Y-113947378D01*
X108106964Y-113945565D01*
X108110781Y-113944068D01*
X108114294Y-113942382D01*
X108117515Y-113940000D01*
X108120457Y-113936419D01*
X108123133Y-113931131D01*
X108125554Y-113923633D01*
X108127735Y-113913417D01*
X108129686Y-113899978D01*
X108131421Y-113882812D01*
X108132953Y-113861412D01*
X108134294Y-113835273D01*
X108135456Y-113803889D01*
X108136451Y-113766754D01*
X108137294Y-113723365D01*
X108137996Y-113673213D01*
X108138569Y-113615795D01*
X108139027Y-113550605D01*
X108139381Y-113477136D01*
X108139645Y-113394885D01*
X108139831Y-113303344D01*
X108139951Y-113202008D01*
X108140018Y-113090373D01*
X108140045Y-112967932D01*
X108140044Y-112834180D01*
X108140028Y-112688611D01*
X108140009Y-112530719D01*
X108140000Y-112360001D01*
X108140006Y-112232419D01*
X108140028Y-112070929D01*
X108140052Y-111921898D01*
X108140065Y-111784821D01*
X108140054Y-111659195D01*
X108140004Y-111544516D01*
X108139903Y-111440282D01*
X108139735Y-111345989D01*
X108139488Y-111261133D01*
X108139148Y-111185210D01*
X108138702Y-111117718D01*
X108138135Y-111058153D01*
X108137433Y-111006011D01*
X108136584Y-110960790D01*
X108135574Y-110921985D01*
X108134388Y-110889093D01*
X108133014Y-110861610D01*
X108131437Y-110839034D01*
X108129643Y-110820860D01*
X108127620Y-110806586D01*
X108125353Y-110795708D01*
X108122830Y-110787722D01*
X108120035Y-110782125D01*
X108116955Y-110778413D01*
X108113577Y-110776083D01*
X108109888Y-110774632D01*
X108105872Y-110773556D01*
X108101518Y-110772352D01*
X108096810Y-110770516D01*
X108095196Y-110769871D01*
X108090850Y-110768757D01*
X108084284Y-110767729D01*
X108074993Y-110766784D01*
X108062471Y-110765918D01*
X108046215Y-110765129D01*
X108025718Y-110764413D01*
X108000476Y-110763767D01*
X107969983Y-110763187D01*
X107933734Y-110762670D01*
X107891224Y-110762212D01*
X107841948Y-110761811D01*
X107785401Y-110761462D01*
X107721077Y-110761163D01*
X107648471Y-110760910D01*
X107567079Y-110760699D01*
X107476394Y-110760528D01*
X107375912Y-110760394D01*
X107265128Y-110760291D01*
X107143537Y-110760218D01*
X107010632Y-110760171D01*
X106865910Y-110760147D01*
X106708865Y-110760142D01*
X106538992Y-110760152D01*
X106447192Y-110760159D01*
X106283355Y-110760159D01*
X106132078Y-110760155D01*
X105992857Y-110760158D01*
X105865185Y-110760183D01*
X105748557Y-110760240D01*
X105642467Y-110760343D01*
X105546410Y-110760504D01*
X105459879Y-110760736D01*
X105382370Y-110761051D01*
X105313377Y-110761463D01*
X105252395Y-110761982D01*
X105198916Y-110762622D01*
X105152437Y-110763396D01*
X105112451Y-110764316D01*
X105078453Y-110765395D01*
X105049937Y-110766644D01*
X105026398Y-110768077D01*
X105007330Y-110769707D01*
X104992227Y-110771545D01*
X104980585Y-110773605D01*
X104971896Y-110775898D01*
X104965656Y-110778438D01*
X104961359Y-110781237D01*
X104958500Y-110784307D01*
X104956572Y-110787661D01*
X104955070Y-110791312D01*
X104953490Y-110795272D01*
X104951324Y-110799554D01*
X104950690Y-110800765D01*
X104949492Y-110804094D01*
X104948387Y-110809052D01*
X104947370Y-110816145D01*
X104946439Y-110825884D01*
X104945589Y-110838778D01*
X104944816Y-110855335D01*
X104944118Y-110876065D01*
X104943490Y-110901475D01*
X104942929Y-110932076D01*
X104942431Y-110968376D01*
X104941992Y-111010885D01*
X104941608Y-111060110D01*
X104941277Y-111116561D01*
X104940994Y-111180748D01*
X104940755Y-111253178D01*
X104940557Y-111334361D01*
X104940396Y-111424806D01*
X104940269Y-111525021D01*
X104940171Y-111635516D01*
X104940099Y-111756800D01*
X104940050Y-111889382D01*
X104940020Y-112033769D01*
X104940004Y-112190473D01*
X104940000Y-112360001D01*
X104301613Y-112360001D01*
X104301566Y-112297897D01*
X104301419Y-112078186D01*
X104301318Y-111871595D01*
X104301264Y-111677965D01*
X104301255Y-111497135D01*
X104301294Y-111328946D01*
X104301380Y-111173238D01*
X104301513Y-111029852D01*
X104301695Y-110898628D01*
X104301925Y-110779406D01*
X104302204Y-110672026D01*
X104302532Y-110576329D01*
X104302910Y-110492156D01*
X104303337Y-110419346D01*
X104303816Y-110357740D01*
X104304345Y-110307178D01*
X104304925Y-110267501D01*
X104305557Y-110238549D01*
X104306241Y-110220161D01*
X104306977Y-110212180D01*
X104307614Y-110209988D01*
X104320174Y-110184960D01*
X104340425Y-110160099D01*
X104364386Y-110139562D01*
X104388076Y-110127505D01*
X104395956Y-110126930D01*
X104417054Y-110126350D01*
X104451023Y-110125805D01*
X104497625Y-110125295D01*
X104556621Y-110124821D01*
X104627774Y-110124383D01*
X104710843Y-110123982D01*
X104805592Y-110123618D01*
X104911782Y-110123292D01*
X105029175Y-110123004D01*
X105157531Y-110122756D01*
X105296614Y-110122548D01*
X105446183Y-110122379D01*
X105606002Y-110122252D01*
X105775831Y-110122166D01*
X105955433Y-110122122D01*
X106144568Y-110122120D01*
X106342999Y-110122162D01*
G37*
G36*
X117862999Y-110122162D02*
G01*
X118070487Y-110122247D01*
X120210974Y-110123334D01*
X120237999Y-110141218D01*
X120244301Y-110145753D01*
X120264868Y-110164569D01*
X120280845Y-110184552D01*
X120296666Y-110210000D01*
X120296666Y-112360000D01*
X120296666Y-114510000D01*
X120280845Y-114535449D01*
X120276724Y-114541456D01*
X120258511Y-114561862D01*
X120237999Y-114578783D01*
X120210973Y-114596667D01*
X118060486Y-114596667D01*
X115910000Y-114596667D01*
X115884551Y-114580846D01*
X115878544Y-114576725D01*
X115858138Y-114558512D01*
X115841217Y-114538000D01*
X115823333Y-114510975D01*
X115821625Y-112374685D01*
X115821622Y-112371296D01*
X115821613Y-112360001D01*
X116460000Y-112360001D01*
X116460000Y-112371296D01*
X116460005Y-112540256D01*
X116460024Y-112696422D01*
X116460060Y-112840299D01*
X116460116Y-112972395D01*
X116460195Y-113093214D01*
X116460301Y-113203264D01*
X116460439Y-113303051D01*
X116460610Y-113393081D01*
X116460820Y-113473861D01*
X116461070Y-113545895D01*
X116461366Y-113609692D01*
X116461710Y-113665757D01*
X116462106Y-113714597D01*
X116462557Y-113756717D01*
X116463068Y-113792624D01*
X116463641Y-113822824D01*
X116464280Y-113847824D01*
X116464989Y-113868129D01*
X116465771Y-113884247D01*
X116466630Y-113896683D01*
X116467569Y-113905943D01*
X116468592Y-113912535D01*
X116469702Y-113916963D01*
X116470903Y-113919735D01*
X116482996Y-113934931D01*
X116500265Y-113949097D01*
X116500403Y-113949177D01*
X116503266Y-113950372D01*
X116507818Y-113951477D01*
X116514566Y-113952494D01*
X116524015Y-113953428D01*
X116536672Y-113954282D01*
X116553043Y-113955059D01*
X116573635Y-113955763D01*
X116598953Y-113956398D01*
X116629505Y-113956967D01*
X116665795Y-113957474D01*
X116708332Y-113957921D01*
X116757620Y-113958314D01*
X116814166Y-113958655D01*
X116878476Y-113958947D01*
X116951057Y-113959195D01*
X117032415Y-113959402D01*
X117123056Y-113959571D01*
X117223487Y-113959706D01*
X117334213Y-113959811D01*
X117455741Y-113959889D01*
X117588578Y-113959943D01*
X117733229Y-113959977D01*
X117890201Y-113959995D01*
X118060000Y-113960001D01*
X118154401Y-113959999D01*
X118316819Y-113959989D01*
X118466692Y-113959966D01*
X118604529Y-113959926D01*
X118730839Y-113959866D01*
X118846131Y-113959781D01*
X118950914Y-113959669D01*
X119045698Y-113959524D01*
X119130992Y-113959345D01*
X119207305Y-113959126D01*
X119275146Y-113958864D01*
X119335024Y-113958556D01*
X119387449Y-113958197D01*
X119432929Y-113957785D01*
X119471975Y-113957315D01*
X119505095Y-113956784D01*
X119532798Y-113956187D01*
X119555594Y-113955522D01*
X119573992Y-113954784D01*
X119588500Y-113953970D01*
X119599629Y-113953076D01*
X119607887Y-113952098D01*
X119613784Y-113951034D01*
X119617828Y-113949878D01*
X119620530Y-113948627D01*
X119622831Y-113947378D01*
X119626964Y-113945565D01*
X119630781Y-113944068D01*
X119634294Y-113942382D01*
X119637515Y-113940000D01*
X119640457Y-113936419D01*
X119643133Y-113931131D01*
X119645554Y-113923633D01*
X119647735Y-113913417D01*
X119649686Y-113899978D01*
X119651421Y-113882812D01*
X119652953Y-113861412D01*
X119654294Y-113835273D01*
X119655456Y-113803889D01*
X119656451Y-113766754D01*
X119657294Y-113723365D01*
X119657996Y-113673213D01*
X119658569Y-113615795D01*
X119659027Y-113550605D01*
X119659381Y-113477136D01*
X119659645Y-113394885D01*
X119659831Y-113303344D01*
X119659951Y-113202008D01*
X119660018Y-113090373D01*
X119660045Y-112967932D01*
X119660044Y-112834180D01*
X119660028Y-112688611D01*
X119660009Y-112530719D01*
X119660000Y-112360001D01*
X119660006Y-112232419D01*
X119660028Y-112070929D01*
X119660052Y-111921898D01*
X119660065Y-111784821D01*
X119660054Y-111659195D01*
X119660004Y-111544516D01*
X119659903Y-111440282D01*
X119659735Y-111345989D01*
X119659488Y-111261133D01*
X119659148Y-111185210D01*
X119658702Y-111117718D01*
X119658135Y-111058153D01*
X119657433Y-111006011D01*
X119656584Y-110960790D01*
X119655574Y-110921985D01*
X119654388Y-110889093D01*
X119653014Y-110861610D01*
X119651437Y-110839034D01*
X119649643Y-110820860D01*
X119647620Y-110806586D01*
X119645353Y-110795708D01*
X119642830Y-110787722D01*
X119640035Y-110782125D01*
X119636955Y-110778413D01*
X119633577Y-110776083D01*
X119629888Y-110774632D01*
X119625872Y-110773556D01*
X119621518Y-110772352D01*
X119616810Y-110770516D01*
X119615196Y-110769871D01*
X119610850Y-110768757D01*
X119604284Y-110767729D01*
X119594993Y-110766784D01*
X119582471Y-110765918D01*
X119566215Y-110765129D01*
X119545718Y-110764413D01*
X119520476Y-110763767D01*
X119489983Y-110763187D01*
X119453734Y-110762670D01*
X119411224Y-110762212D01*
X119361948Y-110761811D01*
X119305401Y-110761462D01*
X119241077Y-110761163D01*
X119168471Y-110760910D01*
X119087079Y-110760699D01*
X118996394Y-110760528D01*
X118895912Y-110760394D01*
X118785128Y-110760291D01*
X118663537Y-110760218D01*
X118530632Y-110760171D01*
X118385910Y-110760147D01*
X118228865Y-110760142D01*
X118058992Y-110760152D01*
X117967192Y-110760159D01*
X117803355Y-110760159D01*
X117652078Y-110760155D01*
X117512857Y-110760158D01*
X117385185Y-110760183D01*
X117268557Y-110760240D01*
X117162467Y-110760343D01*
X117066410Y-110760504D01*
X116979879Y-110760736D01*
X116902370Y-110761051D01*
X116833377Y-110761463D01*
X116772395Y-110761982D01*
X116718916Y-110762622D01*
X116672437Y-110763396D01*
X116632451Y-110764316D01*
X116598453Y-110765395D01*
X116569937Y-110766644D01*
X116546398Y-110768077D01*
X116527330Y-110769707D01*
X116512227Y-110771545D01*
X116500585Y-110773605D01*
X116491896Y-110775898D01*
X116485656Y-110778438D01*
X116481359Y-110781237D01*
X116478500Y-110784307D01*
X116476572Y-110787661D01*
X116475070Y-110791312D01*
X116473490Y-110795272D01*
X116471324Y-110799554D01*
X116470690Y-110800765D01*
X116469492Y-110804094D01*
X116468387Y-110809052D01*
X116467370Y-110816145D01*
X116466439Y-110825884D01*
X116465589Y-110838778D01*
X116464816Y-110855335D01*
X116464118Y-110876065D01*
X116463490Y-110901475D01*
X116462929Y-110932076D01*
X116462431Y-110968376D01*
X116461992Y-111010885D01*
X116461608Y-111060110D01*
X116461277Y-111116561D01*
X116460994Y-111180748D01*
X116460755Y-111253178D01*
X116460557Y-111334361D01*
X116460396Y-111424806D01*
X116460269Y-111525021D01*
X116460171Y-111635516D01*
X116460099Y-111756800D01*
X116460050Y-111889382D01*
X116460020Y-112033769D01*
X116460004Y-112190473D01*
X116460000Y-112360001D01*
X115821613Y-112360001D01*
X115821566Y-112297897D01*
X115821419Y-112078186D01*
X115821318Y-111871595D01*
X115821264Y-111677965D01*
X115821255Y-111497135D01*
X115821294Y-111328946D01*
X115821380Y-111173238D01*
X115821513Y-111029852D01*
X115821695Y-110898628D01*
X115821925Y-110779406D01*
X115822204Y-110672026D01*
X115822532Y-110576329D01*
X115822910Y-110492156D01*
X115823337Y-110419346D01*
X115823816Y-110357740D01*
X115824345Y-110307178D01*
X115824925Y-110267501D01*
X115825557Y-110238549D01*
X115826241Y-110220161D01*
X115826977Y-110212180D01*
X115827614Y-110209988D01*
X115840174Y-110184960D01*
X115860425Y-110160099D01*
X115884386Y-110139562D01*
X115908076Y-110127505D01*
X115915956Y-110126930D01*
X115937054Y-110126350D01*
X115971023Y-110125805D01*
X116017625Y-110125295D01*
X116076621Y-110124821D01*
X116147774Y-110124383D01*
X116230843Y-110123982D01*
X116325592Y-110123618D01*
X116431782Y-110123292D01*
X116549175Y-110123004D01*
X116677531Y-110122756D01*
X116816614Y-110122548D01*
X116966183Y-110122379D01*
X117126002Y-110122252D01*
X117295831Y-110122166D01*
X117475433Y-110122122D01*
X117664568Y-110122120D01*
X117862999Y-110122162D01*
G37*
G36*
X115820000Y-107240000D02*
G01*
X115820000Y-107560000D01*
X116140000Y-107560000D01*
X116460000Y-107560000D01*
X116460000Y-107880000D01*
X116460000Y-108200000D01*
X116780000Y-108200000D01*
X117100000Y-108200000D01*
X117100000Y-107880000D01*
X117100000Y-107560000D01*
X117420000Y-107560000D01*
X117740000Y-107560000D01*
X117740000Y-108200000D01*
X117740000Y-108840000D01*
X117420000Y-108840000D01*
X117100000Y-108840000D01*
X117100000Y-109160000D01*
X117100000Y-109480000D01*
X116780000Y-109480000D01*
X116460000Y-109480000D01*
X116460000Y-108840000D01*
X116460000Y-108200000D01*
X116140000Y-108200000D01*
X115820000Y-108200000D01*
X115820000Y-108840000D01*
X115820000Y-109480000D01*
X115500000Y-109480000D01*
X115180000Y-109480000D01*
X115180000Y-109160000D01*
X115180000Y-108840000D01*
X114860000Y-108840000D01*
X114540000Y-108840000D01*
X114540000Y-109160000D01*
X114540000Y-109480000D01*
X113580000Y-109480000D01*
X112620000Y-109480000D01*
X112620000Y-110120000D01*
X112620000Y-110760000D01*
X112940000Y-110760000D01*
X113260000Y-110760000D01*
X113260000Y-110440000D01*
X113260000Y-110120000D01*
X113580000Y-110120000D01*
X113900000Y-110120000D01*
X113900000Y-110440000D01*
X113900000Y-110760000D01*
X114220000Y-110760000D01*
X114540000Y-110760000D01*
X114540000Y-111080000D01*
X114540000Y-111400000D01*
X114860000Y-111400000D01*
X115180000Y-111400000D01*
X115180000Y-112040000D01*
X115180000Y-112680000D01*
X114540000Y-112680000D01*
X113900000Y-112680000D01*
X113900000Y-112040000D01*
X113900000Y-111400000D01*
X113260000Y-111400000D01*
X112620000Y-111400000D01*
X112620000Y-111720000D01*
X112620000Y-112040000D01*
X112300000Y-112040000D01*
X111980000Y-112040000D01*
X111980000Y-112680000D01*
X111980000Y-113320000D01*
X112940000Y-113320000D01*
X113900000Y-113320000D01*
X113900000Y-113960000D01*
X113900000Y-114600000D01*
X113580000Y-114600000D01*
X113260000Y-114600000D01*
X113260000Y-114280000D01*
X113260000Y-113960000D01*
X112300000Y-113960000D01*
X111340000Y-113960000D01*
X111340000Y-113640000D01*
X111340000Y-113320000D01*
X111020000Y-113320000D01*
X110700000Y-113320000D01*
X110700000Y-113960000D01*
X110700000Y-114600000D01*
X110380000Y-114600000D01*
X110060000Y-114600000D01*
X110060000Y-114280000D01*
X110060000Y-113960000D01*
X109740000Y-113960000D01*
X109420000Y-113960000D01*
X109420000Y-113640000D01*
X109420000Y-113320000D01*
X109740000Y-113320000D01*
X110060000Y-113320000D01*
X110060000Y-113000000D01*
X110060000Y-112680000D01*
X110700000Y-112680000D01*
X111020000Y-112680000D01*
X111340000Y-112680000D01*
X111340000Y-112360000D01*
X111340000Y-112040000D01*
X111020000Y-112040000D01*
X110700000Y-112040000D01*
X110700000Y-112360000D01*
X110700000Y-112680000D01*
X110060000Y-112680000D01*
X109740000Y-112680000D01*
X109420000Y-112680000D01*
X109420000Y-112360000D01*
X109420000Y-112040000D01*
X110060000Y-112040000D01*
X110700000Y-112040000D01*
X110700000Y-111080000D01*
X110700000Y-110120000D01*
X111020000Y-110120000D01*
X111340000Y-110120000D01*
X111340000Y-111080000D01*
X111340000Y-112040000D01*
X111660000Y-112040000D01*
X111980000Y-112040000D01*
X111980000Y-111720000D01*
X111980000Y-111400000D01*
X112300000Y-111400000D01*
X112620000Y-111400000D01*
X112620000Y-111080000D01*
X112620000Y-110760000D01*
X112300000Y-110760000D01*
X111980000Y-110760000D01*
X111980000Y-109800000D01*
X111980000Y-108840000D01*
X112620000Y-108840000D01*
X113260000Y-108840000D01*
X113260000Y-108200000D01*
X113260000Y-107880000D01*
X114540000Y-107880000D01*
X114540000Y-108200000D01*
X114860000Y-108200000D01*
X115180000Y-108200000D01*
X115180000Y-107880000D01*
X115180000Y-107560000D01*
X114860000Y-107560000D01*
X114540000Y-107560000D01*
X114540000Y-107880000D01*
X113260000Y-107880000D01*
X113260000Y-107560000D01*
X113900000Y-107560000D01*
X114540000Y-107560000D01*
X114540000Y-107240000D01*
X114540000Y-106920000D01*
X115180000Y-106920000D01*
X115820000Y-106920000D01*
X115820000Y-107240000D01*
G37*
G36*
X112940000Y-112040000D02*
G01*
X113260000Y-112040000D01*
X113260000Y-112360000D01*
X113260000Y-112680000D01*
X112940000Y-112680000D01*
X112620000Y-112680000D01*
X112620000Y-112360000D01*
X112620000Y-112040000D01*
X112940000Y-112040000D01*
G37*
G36*
X114860000Y-109480000D02*
G01*
X115180000Y-109480000D01*
X115180000Y-110120000D01*
X115180000Y-110760000D01*
X114860000Y-110760000D01*
X114540000Y-110760000D01*
X114540000Y-110120000D01*
X114540000Y-109480000D01*
X114860000Y-109480000D01*
G37*
G36*
X110060000Y-99560000D02*
G01*
X110060000Y-100520000D01*
X110700000Y-100520000D01*
X111340000Y-100520000D01*
X111340000Y-100840000D01*
X111340000Y-101160000D01*
X111660000Y-101160000D01*
X111980000Y-101160000D01*
X111980000Y-99880000D01*
X111980000Y-98600000D01*
X112300000Y-98600000D01*
X112620000Y-98600000D01*
X112620000Y-99880000D01*
X112620000Y-101160000D01*
X112940000Y-101160000D01*
X113260000Y-101160000D01*
X113260000Y-100520000D01*
X113260000Y-100200000D01*
X113260000Y-99240000D01*
X113580000Y-99240000D01*
X113900000Y-99240000D01*
X113900000Y-99880000D01*
X113900000Y-100520000D01*
X114540000Y-100520000D01*
X115180000Y-100520000D01*
X115180000Y-100840000D01*
X115180000Y-101160000D01*
X115500000Y-101160000D01*
X115820000Y-101160000D01*
X115820000Y-100840000D01*
X115820000Y-100520000D01*
X116140000Y-100520000D01*
X116460000Y-100520000D01*
X116460000Y-100840000D01*
X116460000Y-101160000D01*
X116780000Y-101160000D01*
X117100000Y-101160000D01*
X117100000Y-100520000D01*
X117100000Y-99880000D01*
X115820000Y-99880000D01*
X114540000Y-99880000D01*
X114540000Y-99560000D01*
X114540000Y-99240000D01*
X114220000Y-99240000D01*
X113900000Y-99240000D01*
X113900000Y-98920000D01*
X113900000Y-98600000D01*
X114220000Y-98600000D01*
X114540000Y-98600000D01*
X114540000Y-98920000D01*
X114540000Y-99240000D01*
X116460000Y-99240000D01*
X118380000Y-99240000D01*
X118380000Y-98920000D01*
X118380000Y-98600000D01*
X119340000Y-98600000D01*
X120300000Y-98600000D01*
X120300000Y-98920000D01*
X120300000Y-99240000D01*
X119980000Y-99240000D01*
X119660000Y-99240000D01*
X119660000Y-99560000D01*
X119660000Y-99880000D01*
X119340000Y-99880000D01*
X119020000Y-99880000D01*
X119020000Y-99560000D01*
X119020000Y-99240000D01*
X118700000Y-99240000D01*
X118380000Y-99240000D01*
X118380000Y-99560000D01*
X118380000Y-99880000D01*
X118060000Y-99880000D01*
X117740000Y-99880000D01*
X117740000Y-100520000D01*
X117740000Y-101160000D01*
X118060000Y-101160000D01*
X118380000Y-101160000D01*
X118380000Y-101800000D01*
X118380000Y-102440000D01*
X118060000Y-102440000D01*
X117740000Y-102440000D01*
X117740000Y-103080000D01*
X117740000Y-103720000D01*
X118060000Y-103720000D01*
X118380000Y-103720000D01*
X118380000Y-104040000D01*
X118380000Y-104360000D01*
X117100000Y-104360000D01*
X115820000Y-104360000D01*
X115820000Y-104680000D01*
X115820000Y-105000000D01*
X116140000Y-105000000D01*
X116460000Y-105000000D01*
X116460000Y-105320000D01*
X116460000Y-105640000D01*
X116780000Y-105640000D01*
X117100000Y-105640000D01*
X117100000Y-105320000D01*
X117100000Y-105000000D01*
X117420000Y-105000000D01*
X117740000Y-105000000D01*
X117740000Y-105640000D01*
X117740000Y-106280000D01*
X118060000Y-106280000D01*
X118380000Y-106280000D01*
X118380000Y-106600000D01*
X118380000Y-106920000D01*
X117100000Y-106920000D01*
X115820000Y-106920000D01*
X115820000Y-106600000D01*
X115820000Y-106280000D01*
X115180000Y-106280000D01*
X114540000Y-106280000D01*
X114540000Y-105960000D01*
X114540000Y-105640000D01*
X114860000Y-105640000D01*
X115180000Y-105640000D01*
X115180000Y-105000000D01*
X115180000Y-104360000D01*
X114540000Y-104360000D01*
X113900000Y-104360000D01*
X113900000Y-104040000D01*
X113900000Y-103720000D01*
X114220000Y-103720000D01*
X114540000Y-103720000D01*
X115180000Y-103720000D01*
X116140000Y-103720000D01*
X117100000Y-103720000D01*
X117100000Y-102760000D01*
X117100000Y-101800000D01*
X116140000Y-101800000D01*
X115180000Y-101800000D01*
X115180000Y-102760000D01*
X115180000Y-103720000D01*
X114540000Y-103720000D01*
X114540000Y-102760000D01*
X114540000Y-102440000D01*
X114540000Y-101160000D01*
X114220000Y-101160000D01*
X113900000Y-101160000D01*
X113900000Y-101480000D01*
X113900000Y-101800000D01*
X112940000Y-101800000D01*
X111980000Y-101800000D01*
X111980000Y-102120000D01*
X111980000Y-102440000D01*
X112300000Y-102440000D01*
X112620000Y-102440000D01*
X112620000Y-102760000D01*
X112620000Y-103080000D01*
X111980000Y-103080000D01*
X111340000Y-103080000D01*
X111340000Y-102120000D01*
X111340000Y-101160000D01*
X111020000Y-101160000D01*
X110700000Y-101160000D01*
X110700000Y-102120000D01*
X110700000Y-103080000D01*
X111020000Y-103080000D01*
X111340000Y-103080000D01*
X111340000Y-103400000D01*
X111340000Y-103720000D01*
X111020000Y-103720000D01*
X110700000Y-103720000D01*
X110700000Y-104360000D01*
X110700000Y-105000000D01*
X111020000Y-105000000D01*
X111340000Y-105000000D01*
X111340000Y-105640000D01*
X111340000Y-106280000D01*
X111020000Y-106280000D01*
X110700000Y-106280000D01*
X110700000Y-106600000D01*
X110700000Y-106920000D01*
X111020000Y-106920000D01*
X111340000Y-106920000D01*
X111340000Y-106600000D01*
X111340000Y-106280000D01*
X111660000Y-106280000D01*
X111980000Y-106280000D01*
X111980000Y-106920000D01*
X111980000Y-107560000D01*
X112300000Y-107560000D01*
X112620000Y-107560000D01*
X112620000Y-107240000D01*
X112620000Y-106920000D01*
X112940000Y-106920000D01*
X113260000Y-106920000D01*
X113260000Y-107240000D01*
X113260000Y-107560000D01*
X112940000Y-107560000D01*
X112620000Y-107560000D01*
X112620000Y-107880000D01*
X112620000Y-108200000D01*
X111980000Y-108200000D01*
X111340000Y-108200000D01*
X111340000Y-107880000D01*
X111340000Y-107560000D01*
X111020000Y-107560000D01*
X110700000Y-107560000D01*
X110700000Y-108200000D01*
X110700000Y-108840000D01*
X111020000Y-108840000D01*
X111340000Y-108840000D01*
X111340000Y-109160000D01*
X111340000Y-109480000D01*
X109740000Y-109480000D01*
X108140000Y-109480000D01*
X108140000Y-109160000D01*
X108140000Y-108840000D01*
X108460000Y-108840000D01*
X108780000Y-108840000D01*
X108780000Y-108520000D01*
X108780000Y-108200000D01*
X108460000Y-108200000D01*
X108140000Y-108200000D01*
X108140000Y-107880000D01*
X108140000Y-107560000D01*
X108460000Y-107560000D01*
X108780000Y-107560000D01*
X109420000Y-107560000D01*
X109740000Y-107560000D01*
X110060000Y-107560000D01*
X110060000Y-106280000D01*
X110060000Y-105000000D01*
X109740000Y-105000000D01*
X109420000Y-105000000D01*
X109420000Y-106280000D01*
X109420000Y-107560000D01*
X108780000Y-107560000D01*
X108780000Y-107240000D01*
X108780000Y-106920000D01*
X108460000Y-106920000D01*
X108140000Y-106920000D01*
X108140000Y-107240000D01*
X108140000Y-107560000D01*
X107820000Y-107560000D01*
X107500000Y-107560000D01*
X107500000Y-108520000D01*
X107500000Y-109480000D01*
X105900000Y-109480000D01*
X104300000Y-109480000D01*
X104300000Y-108840000D01*
X106220000Y-108840000D01*
X106540000Y-108840000D01*
X106860000Y-108840000D01*
X106860000Y-108200000D01*
X106860000Y-107560000D01*
X107180000Y-107560000D01*
X107500000Y-107560000D01*
X107500000Y-107240000D01*
X107500000Y-106920000D01*
X106860000Y-106920000D01*
X106220000Y-106920000D01*
X106220000Y-107880000D01*
X106220000Y-108840000D01*
X104300000Y-108840000D01*
X104300000Y-108520000D01*
X104300000Y-108200000D01*
X104940000Y-108200000D01*
X105260000Y-108200000D01*
X105580000Y-108200000D01*
X105580000Y-107880000D01*
X105580000Y-107560000D01*
X105260000Y-107560000D01*
X104940000Y-107560000D01*
X104940000Y-107880000D01*
X104940000Y-108200000D01*
X104300000Y-108200000D01*
X104300000Y-107880000D01*
X104300000Y-107560000D01*
X104620000Y-107560000D01*
X104940000Y-107560000D01*
X104940000Y-106920000D01*
X104940000Y-106280000D01*
X104620000Y-106280000D01*
X104300000Y-106280000D01*
X104300000Y-105000000D01*
X104300000Y-103720000D01*
X104620000Y-103720000D01*
X104940000Y-103720000D01*
X104940000Y-104680000D01*
X104940000Y-105640000D01*
X105580000Y-105640000D01*
X106220000Y-105640000D01*
X106220000Y-105960000D01*
X106220000Y-106280000D01*
X107500000Y-106280000D01*
X108780000Y-106280000D01*
X108780000Y-105960000D01*
X108780000Y-105640000D01*
X108460000Y-105640000D01*
X108140000Y-105640000D01*
X108140000Y-105320000D01*
X108140000Y-105000000D01*
X108780000Y-105000000D01*
X109420000Y-105000000D01*
X109420000Y-104680000D01*
X109420000Y-104360000D01*
X108780000Y-104360000D01*
X108140000Y-104360000D01*
X108140000Y-104040000D01*
X108140000Y-103720000D01*
X108780000Y-103720000D01*
X109420000Y-103720000D01*
X109420000Y-103080000D01*
X109420000Y-102440000D01*
X109740000Y-102440000D01*
X110060000Y-102440000D01*
X110060000Y-102120000D01*
X110060000Y-101800000D01*
X109740000Y-101800000D01*
X109420000Y-101800000D01*
X109420000Y-100200000D01*
X109420000Y-98600000D01*
X109740000Y-98600000D01*
X110060000Y-98600000D01*
X110060000Y-99560000D01*
G37*
G36*
X118060000Y-108840000D02*
G01*
X118380000Y-108840000D01*
X118380000Y-109160000D01*
X118380000Y-109480000D01*
X118060000Y-109480000D01*
X117740000Y-109480000D01*
X117740000Y-109160000D01*
X117740000Y-108840000D01*
X118060000Y-108840000D01*
G37*
G36*
X119340000Y-102440000D02*
G01*
X120300000Y-102440000D01*
X120300000Y-104040000D01*
X120300000Y-105640000D01*
X119340000Y-105640000D01*
X118380000Y-105640000D01*
X118380000Y-105320000D01*
X118380000Y-105000000D01*
X118700000Y-105000000D01*
X119020000Y-105000000D01*
X119020000Y-104680000D01*
X119020000Y-104360000D01*
X119340000Y-104360000D01*
X119660000Y-104360000D01*
X119660000Y-103720000D01*
X119660000Y-103080000D01*
X119020000Y-103080000D01*
X118380000Y-103080000D01*
X118380000Y-102760000D01*
X118380000Y-102440000D01*
X119340000Y-102440000D01*
G37*
G36*
X119020000Y-100200000D02*
G01*
X119020000Y-100520000D01*
X119340000Y-100520000D01*
X119660000Y-100520000D01*
X119660000Y-100200000D01*
X119660000Y-99880000D01*
X119980000Y-99880000D01*
X120300000Y-99880000D01*
X120300000Y-100520000D01*
X120300000Y-101160000D01*
X119660000Y-101160000D01*
X119020000Y-101160000D01*
X119020000Y-100840000D01*
X119020000Y-100520000D01*
X118700000Y-100520000D01*
X118380000Y-100520000D01*
X118380000Y-100200000D01*
X118380000Y-99880000D01*
X118700000Y-99880000D01*
X119020000Y-99880000D01*
X119020000Y-100200000D01*
G37*
%TD*%
M02*
